<svg width="48" height="48" viewBox="0 0 48 48" fill="none" xmlns="http://www.w3.org/2000/svg">
<path d="M24.0621 24.1286C26.6909 24.1286 29.0612 25.2389 30.7273 27.0163C31.9528 25.6034 33.7424 24.7537 35.6791 24.7537H37.4185C41.0534 24.7537 44 27.719 44 31.3769C44 35.0347 41.0534 38 37.4185 38H9.83602C6.61287 38 4 35.3706 4 32.1271C4 28.8835 6.61287 26.2541 9.83602 26.2541H14.1817C15.2954 26.2541 16.3617 26.5703 17.2763 27.1469C18.9448 25.295 21.3677 24.1286 24.0621 24.1286ZM14.1817 28.7477H9.83602C7.98137 28.7477 6.47788 30.2607 6.47788 32.1271C6.47788 33.9934 7.98137 35.5064 9.83602 35.5064H14.9472L14.946 35.3306L14.9336 33.2465L14.932 33.238L14.934 33.144L14.944 32.81V32.794L14.9585 32.5689C14.9666 32.4572 14.9768 32.3466 14.9889 32.2366C14.9931 32.2007 14.9973 32.164 15.0019 32.1273C15.0171 32.0015 15.035 31.8768 15.0554 31.7529C15.0627 31.7102 15.07 31.6682 15.0775 31.6263C15.1327 31.3174 15.2039 31.0133 15.2899 30.7153C15.3109 30.6435 15.3325 30.5721 15.355 30.5009C15.3833 30.4101 15.4133 30.32 15.4447 30.2306L15.5131 30.0431C15.6165 29.7671 15.7331 29.4978 15.8618 29.2356L15.8757 29.2081L15.828 29.1805C15.3333 28.8998 14.7701 28.7477 14.1817 28.7477ZM37.4185 27.2473H35.6791C34.2591 27.2473 32.9676 27.9783 32.2208 29.1525L32.2353 29.181C32.3749 29.4604 32.5005 29.7479 32.6113 30.0428C32.6261 30.083 32.6406 30.1224 32.6548 30.1619C32.7012 30.2899 32.7449 30.4206 32.7858 30.5527C32.7958 30.5862 32.8061 30.6202 32.8162 30.6543L32.8658 30.827L32.9117 31.0005C32.9621 31.1995 33.0061 31.4011 33.0432 31.6051C33.0518 31.6543 33.0604 31.7036 33.0686 31.753C33.0867 31.8617 33.1028 31.9712 33.1168 32.0812C33.1252 32.148 33.1329 32.2147 33.14 32.2815C33.1501 32.3761 33.1587 32.472 33.1658 32.5683C33.1702 32.6297 33.1741 32.6905 33.1774 32.7514L33.1873 32.9979L33.1906 33.2465V35.5064H37.4185C39.6849 35.5064 41.5221 33.6576 41.5221 31.3769C41.5221 29.0962 39.6849 27.2473 37.4185 27.2473ZM30.524 31.678V31.684L30.526 31.688L30.524 31.678ZM30.112 30.494L30.116 30.5L30.1143 30.4954L30.102 30.47L30.112 30.494ZM11.5755 15.7703C14.3136 15.7703 16.5418 17.9752 16.5418 20.7055C16.5418 23.4359 14.3136 25.6407 11.5755 25.6407C8.83726 25.6407 6.60915 23.4359 6.60915 20.7055C6.60915 17.9752 8.83726 15.7703 11.5755 15.7703ZM36.7275 13.5198C39.6339 13.5198 41.9967 15.8654 41.9967 18.7675C41.9967 21.6696 39.6339 24.0153 36.7275 24.0153C33.8211 24.0153 31.4582 21.6696 31.4582 18.7675C31.4582 15.8654 33.8211 13.5198 36.7275 13.5198ZM11.5755 18.2639C10.1965 18.2639 9.08703 19.3618 9.08703 20.7055C9.08703 22.0493 10.1965 23.1472 11.5755 23.1472C12.9544 23.1472 14.0639 22.0493 14.0639 20.7055C14.0639 19.3618 12.9544 18.2639 11.5755 18.2639ZM24.1242 10C27.3436 10 29.9603 12.5976 29.9603 15.8104C29.9603 19.0233 27.3436 21.6209 24.1242 21.6209C20.9048 21.6209 18.2882 19.0233 18.2882 15.8104C18.2882 12.5976 20.9048 10 24.1242 10ZM36.7275 16.0133C35.1821 16.0133 33.9361 17.2502 33.9361 18.7675C33.9361 20.2848 35.1821 21.5218 36.7275 21.5218C38.2729 21.5218 39.5189 20.2848 39.5189 18.7675C39.5189 17.2502 38.2729 16.0133 36.7275 16.0133ZM24.1242 12.4936C22.2658 12.4936 20.7661 13.9824 20.7661 15.8104C20.7661 17.6385 22.2658 19.1273 24.1242 19.1273C25.9826 19.1273 27.4824 17.6385 27.4824 15.8104C27.4824 13.9824 25.9826 12.4936 24.1242 12.4936ZM30.376 31.166L30.406 31.258L30.39 31.2025L30.358 31.108L30.376 31.166ZM30.376 31.166L30.344 31.068L30.3435 31.0631L30.322 31.006L30.32 31L30.3083 30.9666L30.292 30.924L30.29 30.918L30.2748 30.8761L30.254 30.826L30.236 30.78L30.23 30.766L30.2249 30.7517L30.224 30.748L30.21 30.714L30.218 30.736L30.152 30.58L30.14 30.552L30.1343 30.5405L30.112 30.494L30.094 30.456L30.096 30.458L30.058 30.38L30.05 30.364L30.042 30.348L30.046 30.354L30.0444 30.349L30.0218 30.3022L30.002 30.266L30 30.262L29.96 30.184L29.94 30.146L29.926 30.12L29.916 30.102L29.884 30.044L29.8488 29.9792C29.8146 29.9193 29.7795 29.8599 29.7435 29.8012L29.6427 29.6414L29.586 29.558L29.616 29.606L29.5279 29.4715C28.3272 27.75 26.3277 26.6221 24.0621 26.6221C21.7996 26.6221 19.8023 27.747 18.6012 29.4629L18.5986 29.4681C18.4382 29.6977 18.293 29.9362 18.1638 30.1823L18.142 30.222L18.102 30.302L18.118 30.266L18.076 30.354L18.072 30.364L18.064 30.38L18.0266 30.4575L18.01 30.494L18.008 30.5L17.988 30.54L17.984 30.552L17.9712 30.5812L17.948 30.63L17.96 30.606L17.8029 31.0002C17.7517 31.1417 17.7053 31.2851 17.6639 31.4301L17.5547 31.8695L17.544 31.916L17.54 31.938L17.53 31.986L17.5158 32.0677L17.506 32.122V32.126L17.496 32.182V32.188L17.488 32.236L17.484 32.26L17.48 32.28V32.282L17.4434 32.5883C17.4222 32.8033 17.4115 33.0204 17.4115 33.239L17.424 35.3306L17.4251 35.5064H30.7128V33.2465C30.7128 33.0928 30.7075 32.9399 30.6971 32.788L30.692 32.746L30.694 32.75C30.6931 32.7328 30.692 32.7194 30.6909 32.706L30.692 32.746L30.69 32.702L30.686 32.66L30.6811 32.5959L30.676 32.568L30.666 32.472L30.66 32.424V32.418L30.6597 32.4051L30.6397 32.2611L30.6285 32.1884L30.6058 32.0568L30.574 31.9L30.568 31.868L30.56 31.834L30.5451 31.7609L30.526 31.688L30.54 31.752L30.524 31.684L30.51 31.626L30.504 31.604V31.6L30.463 31.4422L30.458 31.43L30.442 31.376L30.376 31.166Z" fill="#FF5E29"/>
</svg>
