<svg width="40" height="40" viewBox="0 0 40 40" fill="none" xmlns="http://www.w3.org/2000/svg">
<g clip-path="url(#clip0_306_64)">
<path d="M33.3336 15C33.3378 12.7002 32.747 10.4384 31.6186 8.43444C30.4903 6.43045 28.8628 4.75239 26.8943 3.56328C24.9258 2.37417 22.6831 1.71446 20.3843 1.64823C18.0854 1.582 15.8086 2.11151 13.7748 3.18532C11.7411 4.25912 10.0197 5.84071 8.77788 7.77641C7.53606 9.71212 6.81603 11.9361 6.68775 14.2323C6.55948 16.5286 7.02731 18.8189 8.04581 20.8809C9.06431 22.9429 10.5988 24.7063 12.5003 26V36.5833C12.4958 36.8863 12.5739 37.1847 12.7264 37.4466C12.8788 37.7085 13.0997 37.9238 13.3654 38.0695C13.6311 38.2152 13.9314 38.2857 14.2342 38.2735C14.5369 38.2612 14.8306 38.1667 15.0836 38L20.0003 34.1666L24.917 38C25.17 38.1667 25.4637 38.2612 25.7664 38.2735C26.0692 38.2857 26.3695 38.2152 26.6352 38.0695C26.9009 37.9238 27.1218 37.7085 27.2742 37.4466C27.4267 37.1847 27.5048 36.8863 27.5003 36.5833V26C29.2943 24.7795 30.7633 23.1396 31.7798 21.2227C32.7964 19.3058 33.3297 17.1698 33.3336 15ZM10.0003 15C10.0003 13.0222 10.5868 11.0888 11.6856 9.44428C12.7844 7.79979 14.3462 6.51806 16.1735 5.76119C18.0007 5.00431 20.0114 4.80628 21.9512 5.19213C23.891 5.57798 25.6728 6.53039 27.0714 7.92892C28.4699 9.32744 29.4223 11.1093 29.8082 13.0491C30.194 14.9889 29.996 16.9996 29.2391 18.8268C28.4822 20.6541 27.2005 22.2159 25.556 23.3147C23.9115 24.4135 21.9781 25 20.0003 25C17.3481 25 14.8046 23.9464 12.9292 22.0711C11.0539 20.1957 10.0003 17.6521 10.0003 15Z" fill="#FF5E29"/>
<path d="M16.9999 16.4167L16.5833 19C16.5725 19.1544 16.601 19.3089 16.6662 19.4493C16.7313 19.5897 16.8309 19.7113 16.9556 19.8028C17.0804 19.8943 17.2263 19.9528 17.3798 19.9727C17.5333 19.9926 17.6893 19.9733 17.8333 19.9167L19.9999 18.3333L22.1666 19.9167C22.3106 19.9733 22.4666 19.9926 22.6201 19.9727C22.7735 19.9528 22.9194 19.8943 23.0442 19.8028C23.169 19.7113 23.2686 19.5897 23.3337 19.4493C23.3988 19.3089 23.4273 19.1544 23.4166 19L22.9999 16.4167L24.7499 14.75C24.8551 14.6297 24.927 14.484 24.9585 14.3273C24.9899 14.1706 24.9799 14.0084 24.9294 13.8568C24.8789 13.7052 24.7896 13.5695 24.6704 13.463C24.5512 13.3566 24.4063 13.2832 24.2499 13.25L21.8333 12.9167L20.7499 10.5C20.6817 10.3591 20.5752 10.2403 20.4425 10.1571C20.3099 10.074 20.1565 10.0299 19.9999 10.0299C19.8434 10.0299 19.69 10.074 19.5574 10.1571C19.4247 10.2403 19.3182 10.3591 19.2499 10.5L18.1666 12.9167L15.7499 13.25C15.5936 13.2832 15.4487 13.3566 15.3295 13.463C15.2103 13.5695 15.121 13.7052 15.0705 13.8568C15.0199 14.0084 15.0099 14.1706 15.0414 14.3273C15.0729 14.484 15.1448 14.6297 15.2499 14.75L16.9999 16.4167Z" fill="#FF5E29"/>
</g>
<defs>
<clipPath id="clip0_306_64">
<rect width="40" height="40" fill="white"/>
</clipPath>
</defs>
</svg>
