<svg width="15" height="18" viewBox="0 0 15 18" fill="none" xmlns="http://www.w3.org/2000/svg">
<mask id="mask0_254_346" style="mask-type:alpha" maskUnits="userSpaceOnUse" x="2" y="2" width="7" height="11">
<rect x="2.5" y="2.32257" width="6.25" height="9.87097" fill="#D9D9D9"/>
</mask>
<g mask="url(#mask0_254_346)">
</g>
<path d="M4.125 8.54805C4.125 6.50339 4.125 5.48107 4.65221 4.84588C5.17941 4.21069 6.02794 4.21069 7.72499 4.21069H9.52499C11.2221 4.21069 12.0706 4.21069 12.5978 4.84588C13.125 5.48107 13.125 6.5034 13.125 8.54805V12.1625C13.125 14.2072 13.125 15.2295 12.5978 15.8647C12.0706 16.4998 11.2221 16.4998 9.52499 16.4998H7.72499C6.02794 16.4998 5.17941 16.4998 4.65221 15.8647C4.125 15.2295 4.125 14.2072 4.125 12.1625V8.54805Z" fill="#FF5E29"/>
<path opacity="0.5" d="M2.60723 2.37868C1.875 3.25736 1.875 4.67157 1.875 7.5V9C1.875 11.8284 1.875 13.2427 2.60723 14.1213C2.99321 14.5845 3.50319 14.8035 4.24441 14.9071C4.12476 14.2765 4.12476 13.4097 4.12476 12.1625V8.54805C4.12476 6.5034 4.12476 5.48107 4.65196 4.84588C5.17917 4.2107 6.0277 4.2107 7.72475 4.2107H9.52475C10.5572 4.2107 11.2756 4.2107 11.7986 4.3537C11.7127 3.4586 11.5302 2.84365 11.1427 2.37868C10.4106 1.5 9.232 1.5 6.875 1.5C4.51797 1.5 3.33947 1.5 2.60723 2.37868Z" fill="#FF5E29" fill-opacity="0.7"/>
</svg>
