<svg width="60" height="26" viewBox="0 0 60 26" fill="none" xmlns="http://www.w3.org/2000/svg">
<path d="M33.866 24.5C33.4811 25.1667 32.5189 25.1667 32.134 24.5L29.5359 20C29.151 19.3333 29.6321 18.5 30.4019 18.5L35.5981 18.5C36.3679 18.5 36.849 19.3333 36.4641 20L33.866 24.5Z" fill="#FF5E29"/>
<rect width="60" height="19" rx="2" fill="#FF5E29"/>
<path d="M21.049 8.27344H19.4936C19.4652 8.07221 19.4072 7.89347 19.3196 7.73722C19.232 7.5786 19.1196 7.44366 18.9822 7.33239C18.8449 7.22112 18.6863 7.13589 18.5064 7.0767C18.3288 7.01752 18.1359 6.98793 17.9276 6.98793C17.5511 6.98793 17.2232 7.08144 16.9439 7.26847C16.6645 7.45312 16.4479 7.72301 16.294 8.07812C16.1402 8.43087 16.0632 8.85937 16.0632 9.36364C16.0632 9.8821 16.1402 10.3177 16.294 10.6705C16.4503 11.0232 16.6681 11.2895 16.9474 11.4695C17.2268 11.6494 17.55 11.7393 17.9169 11.7393C18.1229 11.7393 18.3134 11.7121 18.4886 11.6577C18.6662 11.6032 18.8236 11.5239 18.9609 11.4197C19.0982 11.3132 19.2119 11.1842 19.3018 11.0327C19.3942 10.8812 19.4581 10.7083 19.4936 10.5142L21.049 10.5213C21.0088 10.8551 20.9081 11.1771 20.7472 11.4872C20.5885 11.795 20.3743 12.0708 20.1044 12.3146C19.8369 12.5561 19.5173 12.7479 19.1456 12.8899C18.7763 13.0296 18.3584 13.0994 17.892 13.0994C17.2434 13.0994 16.6634 12.9527 16.152 12.6591C15.643 12.3655 15.2405 11.9406 14.9446 11.3842C14.651 10.8279 14.5043 10.1544 14.5043 9.36364C14.5043 8.57055 14.6534 7.89583 14.9517 7.33949C15.25 6.78314 15.6548 6.35937 16.1662 6.06818C16.6776 5.77462 17.2528 5.62784 17.892 5.62784C18.3134 5.62784 18.7041 5.68703 19.0639 5.8054C19.4261 5.92377 19.7469 6.09659 20.0263 6.32386C20.3056 6.54877 20.5329 6.82457 20.7081 7.15128C20.8857 7.47798 20.9993 7.85204 21.049 8.27344ZM25.6211 10.6776V7.54545H27.1339V13H25.6815V12.0092H25.6246C25.5015 12.3288 25.2968 12.5857 25.0103 12.7798C24.7262 12.974 24.3794 13.071 23.9698 13.071C23.6052 13.071 23.2844 12.9882 23.0075 12.8224C22.7305 12.6567 22.5138 12.4212 22.3576 12.1158C22.2037 11.8104 22.1256 11.4446 22.1232 11.0185V7.54545H23.636V10.7486C23.6384 11.0705 23.7248 11.325 23.8952 11.5121C24.0657 11.6991 24.2942 11.7926 24.5806 11.7926C24.7629 11.7926 24.9334 11.7512 25.092 11.6683C25.2506 11.5831 25.3784 11.4576 25.4755 11.2919C25.5749 11.1262 25.6235 10.9214 25.6211 10.6776ZM28.3439 13V7.54545H29.8105V8.49716H29.8674C29.9668 8.15862 30.1337 7.90294 30.3681 7.73011C30.6025 7.55492 30.8723 7.46733 31.1777 7.46733C31.2535 7.46733 31.3352 7.47206 31.4228 7.48153C31.5104 7.491 31.5873 7.50402 31.6536 7.5206V8.86293C31.5826 8.84162 31.4843 8.82268 31.3588 8.80611C31.2334 8.78954 31.1185 8.78125 31.0144 8.78125C30.7918 8.78125 30.593 8.82978 30.4178 8.92685C30.245 9.02154 30.1077 9.15412 30.0059 9.32457C29.9064 9.49503 29.8567 9.69152 29.8567 9.91406V13H28.3439ZM32.4357 13V7.54545H33.9023V8.49716H33.9592C34.0586 8.15862 34.2255 7.90294 34.4599 7.73011C34.6942 7.55492 34.9641 7.46733 35.2695 7.46733C35.3453 7.46733 35.427 7.47206 35.5146 7.48153C35.6022 7.491 35.6791 7.50402 35.7454 7.5206V8.86293C35.6744 8.84162 35.5761 8.82268 35.4506 8.80611C35.3252 8.78954 35.2103 8.78125 35.1062 8.78125C34.8836 8.78125 34.6848 8.82978 34.5096 8.92685C34.3368 9.02154 34.1995 9.15412 34.0977 9.32457C33.9982 9.49503 33.9485 9.69152 33.9485 9.91406V13H32.4357ZM38.7594 13.1065C38.1983 13.1065 37.7154 12.9929 37.3105 12.7656C36.9081 12.536 36.598 12.2116 36.3801 11.7926C36.1623 11.3712 36.0534 10.8729 36.0534 10.2976C36.0534 9.73651 36.1623 9.24408 36.3801 8.82031C36.598 8.39654 36.9045 8.06629 37.2999 7.82955C37.6976 7.5928 38.164 7.47443 38.699 7.47443C39.0589 7.47443 39.3939 7.53243 39.704 7.64844C40.0165 7.76207 40.2888 7.93371 40.5208 8.16335C40.7551 8.39299 40.9374 8.68182 41.0676 9.02983C41.1979 9.37547 41.263 9.7803 41.263 10.2443V10.6598H36.6571V9.7223H39.839C39.839 9.5045 39.7916 9.31155 39.6969 9.14347C39.6022 8.97538 39.4708 8.84399 39.3027 8.74929C39.137 8.65223 38.9441 8.60369 38.7239 8.60369C38.4943 8.60369 38.2907 8.65696 38.1131 8.76349C37.9379 8.86766 37.8006 9.00852 37.7012 9.18608C37.6017 9.36127 37.5508 9.55658 37.5485 9.77202V10.6634C37.5485 10.9332 37.5982 11.1664 37.6976 11.3629C37.7994 11.5594 37.9426 11.7109 38.1273 11.8175C38.312 11.924 38.531 11.9773 38.7843 11.9773C38.9524 11.9773 39.1062 11.9536 39.2459 11.9062C39.3856 11.8589 39.5051 11.7879 39.6046 11.6932C39.704 11.5985 39.7798 11.4825 39.8319 11.3452L41.231 11.4375C41.16 11.7737 41.0144 12.0672 40.7942 12.3182C40.5764 12.5668 40.2947 12.7609 39.949 12.9006C39.6058 13.0379 39.2092 13.1065 38.7594 13.1065ZM43.763 9.84659V13H42.2502V7.54545H43.6919V8.50781H43.7559C43.8766 8.19058 44.079 7.93963 44.3631 7.75497C44.6472 7.56795 44.9917 7.47443 45.3965 7.47443C45.7753 7.47443 46.1055 7.55729 46.3873 7.72301C46.669 7.88873 46.888 8.12547 47.0442 8.43324C47.2005 8.73864 47.2786 9.10322 47.2786 9.52699V13H45.7658V9.79688C45.7682 9.46307 45.6829 9.20265 45.5101 9.01562C45.3373 8.82623 45.0994 8.73153 44.7963 8.73153C44.5927 8.73153 44.4128 8.77533 44.2566 8.86293C44.1027 8.95052 43.9819 9.07836 43.8944 9.24645C43.8091 9.41217 43.7653 9.61222 43.763 9.84659ZM51.3722 7.54545V8.68182H48.0874V7.54545H51.3722ZM48.8331 6.23864H50.3459V11.3239C50.3459 11.4635 50.3672 11.5724 50.4098 11.6506C50.4524 11.7263 50.5116 11.7796 50.5874 11.8104C50.6655 11.8411 50.7554 11.8565 50.8572 11.8565C50.9283 11.8565 50.9993 11.8506 51.0703 11.8388C51.1413 11.8246 51.1958 11.8139 51.2337 11.8068L51.4716 12.9325C51.3958 12.9562 51.2893 12.9834 51.152 13.0142C51.0147 13.0473 50.8478 13.0675 50.6513 13.0746C50.2867 13.0888 49.9671 13.0402 49.6925 12.929C49.4202 12.8177 49.2083 12.6449 49.0568 12.4105C48.9053 12.1761 48.8307 11.8802 48.8331 11.5227V6.23864Z" fill="white"/>
</svg>
