<svg width="40" height="40" viewBox="0 0 40 40" fill="none" xmlns="http://www.w3.org/2000/svg">
<g clip-path="url(#clip0_306_55)">
<path d="M40 22.06C40 19.3568 37.8337 17.1605 35.1475 17.0864C34.952 16.7807 34.6756 16.5364 34.3498 16.3734C34.7812 9.93394 29.1752 3.19538 22.193 2.34223C21.2923 2.18578 20.8857 2.21062 20.002 2.15002C9.69594 2.44848 5.25785 11.1128 5.64754 16.3779C5.32432 16.5409 5.05188 16.7832 4.85766 17.0857C2.16886 17.1573 0 19.3548 0 22.06C0 24.7646 2.16886 26.9622 4.85775 27.0338C5.21353 27.5904 5.83403 27.9619 6.54299 27.9619C7.64828 27.9619 8.545 27.0657 8.545 25.9599V18.1597C8.545 17.4845 8.20877 16.8902 7.69654 16.5278C8.56061 11.6707 12.9752 6.26876 20.0019 6.15411C20.4268 6.18466 21.3418 6.17744 21.7277 6.27984C25.2233 6.60247 31.0886 10.0284 32.3021 16.533C31.7938 16.896 31.4602 17.4878 31.4602 18.1597V25.9599C31.4602 26.8006 31.9789 27.5168 32.7126 27.814V28.6631C32.7126 30.8801 31.2151 32.8256 29.0723 33.3938L23.0257 34.995C22.6999 34.5629 22.206 34.2659 21.6207 34.2659C20.6315 34.2659 19.8286 35.0687 19.8286 36.058C19.8286 37.0486 20.6315 37.8502 21.6207 37.8502C22.5318 37.8502 23.2514 37.1634 23.3673 36.2854L29.4139 34.6841C32.1418 33.9607 34.0474 31.7509 34.0474 27.8648C34.5062 27.724 34.8947 27.4295 35.1475 27.0332C37.8337 26.9588 40 24.7626 40 22.06Z" fill="#FF5E29"/>
<path d="M15.4803 24.6258H13.5331V24.6043C14.6579 23.6698 16.0199 22.5449 16.0199 21.0832C16.0199 17.912 10.9667 18.7513 11.4971 20.0861C11.6418 20.4751 12.0262 20.5841 12.3222 20.44C13.2633 19.9805 14.3985 20.1747 14.3985 21.222C14.3672 22.3775 12.6741 23.6705 11.3394 24.8781C11.1387 25.0599 11.0866 25.9599 11.5662 25.9599H15.4803C16.3627 25.9598 16.3627 24.6258 15.4803 24.6258Z" fill="#FF5E29"/>
<path d="M20.7927 25.9598C21.6608 25.9598 21.5604 25.1627 21.5604 24.3058C22.7282 24.3058 22.6995 23.089 21.5604 23.089V19.3607C21.5604 19.1742 21.4091 19.023 21.2227 19.023C19.0697 19.023 19.9754 18.3799 17.0962 23.0134C16.8617 23.3947 16.8147 24.3058 17.2878 24.3058H20.0236C20.0236 25.1608 19.9233 25.9598 20.7927 25.9598ZM18.4661 23.089V23.0675L19.3941 21.5524C19.6288 21.115 19.8112 20.7096 20.0341 20.2614H20.0771C20.0054 21.2832 20.0237 21.5425 20.0237 23.089H18.4661Z" fill="#FF5E29"/>
<path d="M23.3359 19.5836V25.1432C23.3359 26.2211 24.9692 26.2257 24.9692 25.1432V22.9502H27.6477V25.1484C27.6477 26.2186 29.2704 26.2224 29.2704 25.1484V19.5784C29.2704 19.13 28.9068 18.7671 28.4597 18.7671C27.3453 18.7671 27.6477 20.3878 27.6477 21.5309H24.9692V19.5836C24.9691 18.501 23.3359 18.5056 23.3359 19.5836Z" fill="#FF5E29"/>
</g>
<defs>
<clipPath id="clip0_306_55">
<rect width="40" height="40" fill="white"/>
</clipPath>
</defs>
</svg>
