<svg width="38" height="35" viewBox="0 0 38 35" fill="none" xmlns="http://www.w3.org/2000/svg">
<rect x="25.8838" y="24.7017" width="13.7671" height="23.2017" rx="1.5" transform="rotate(-180 25.8838 24.7017)" stroke="#FF5E29" stroke-width="3"/>
<path d="M12.2932 16.1931H5C3.34315 16.1931 2 17.5363 2 19.1931V30C2 31.6569 3.34315 33 5 33L33 33C34.6569 33 36 31.6569 36 30V19.1931C36 17.5363 34.6569 16.1931 33 16.1931H25.7068" stroke="#FF5E29" stroke-width="3"/>
<path d="M29.4795 25.1913L8.52059 25.1913" stroke="#FF5E29" stroke-width="3" stroke-linecap="round"/>
<path d="M16.5551 14.4267L16.6957 14.5454C17.0473 14.8424 17.4904 15.005 17.948 15.005H20.2229C21.1682 15.005 21.9346 14.2282 21.9346 13.27C21.9346 12.3118 21.1682 11.535 20.2229 11.535H17.7777C16.8324 11.535 16.0661 10.7583 16.0661 9.80007C16.0661 8.84187 16.8324 8.06509 17.7777 8.06509H20.5535C21.0628 8.06509 21.552 8.26645 21.9171 8.62623L21.9346 8.64339" stroke="#FF5E29" stroke-width="2" stroke-linecap="round" stroke-linejoin="round"/>
<path d="M19 15.5008V16.4922" stroke="#FF5E29" stroke-width="2" stroke-linecap="round" stroke-linejoin="round"/>
<path d="M19 6.57804V7.56946" stroke="#FF5E29" stroke-width="3" stroke-linecap="round" stroke-linejoin="round"/>
</svg>
