<svg width="42" height="42" viewBox="0 0 42 42" fill="none" xmlns="http://www.w3.org/2000/svg">
<path d="M21 39C30.9411 39 39 30.9411 39 21C39 11.0589 30.9411 3 21 3C11.0589 3 3 11.0589 3 21C3 30.9411 11.0589 39 21 39Z" stroke="#FF5E29" stroke-width="5" stroke-linecap="round" stroke-linejoin="round"/>
<path d="M25.999 15.1667L25.7116 14.9271C24.9926 14.3281 24.0866 14 23.1508 14H18.499C16.566 14 14.999 15.567 14.999 17.5C14.999 19.433 16.566 21 18.499 21H23.499C25.432 21 26.999 22.567 26.999 24.5C26.999 26.433 25.432 28 23.499 28H17.823C16.7816 28 15.7813 27.5938 15.0347 26.868L14.999 26.8334" stroke="#FF5E29" stroke-width="5" stroke-linecap="round" stroke-linejoin="round"/>
<path d="M21 12.9999V10.9999" stroke="#FF5E29" stroke-width="5" stroke-linecap="round" stroke-linejoin="round"/>
<path d="M21 31V29" stroke="#FF5E29" stroke-width="5" stroke-linecap="round" stroke-linejoin="round"/>
</svg>
