<svg width="30" height="30" viewBox="0 0 30 30" fill="none" xmlns="http://www.w3.org/2000/svg">
<mask id="path-1-inside-1_415_5" fill="white">
<path d="M26.6258 2.62752H23.6387V1.0957C23.6387 0.504314 23.16 0.0249023 22.5694 0.0249023C21.9789 0.0249023 21.5001 0.504314 21.5001 1.0957V2.62752H8.05242V1.0957C8.05242 0.504314 7.57369 0.0249023 6.98313 0.0249023C6.39257 0.0249023 5.91383 0.504314 5.91383 1.0957V2.62752H2.92679C1.32639 2.62752 0.0244141 3.93138 0.0244141 5.53398V27.0685C0.0244141 28.6711 1.32644 29.975 2.92679 29.975H26.6259C28.2263 29.975 29.5282 28.6711 29.5282 27.0685V5.53398C29.5282 3.93133 28.2261 2.62752 26.6258 2.62752ZM2.16296 5.53398C2.16296 5.11156 2.50491 4.76912 2.92674 4.76912H5.91373V5.9911C5.91373 6.58249 6.39247 7.0619 6.98303 7.0619C7.57359 7.0619 8.05232 6.58249 8.05232 5.9911V4.76907H21.5001V5.99105C21.5001 6.58244 21.9788 7.06185 22.5694 7.06185C23.1599 7.06185 23.6387 6.58244 23.6387 5.99105V4.76907H26.6257C27.0475 4.76907 27.3896 5.11156 27.3896 5.53393V8.22623H2.16296V5.53398ZM27.3896 27.0684C27.3896 27.4909 27.0477 27.8334 26.6258 27.8334H2.92679C2.50491 27.8334 2.16301 27.4909 2.16301 27.0684V10.3678H27.3896V27.0684Z"/>
</mask>
<path d="M26.6258 2.62752H23.6387V1.0957C23.6387 0.504314 23.16 0.0249023 22.5694 0.0249023C21.9789 0.0249023 21.5001 0.504314 21.5001 1.0957V2.62752H8.05242V1.0957C8.05242 0.504314 7.57369 0.0249023 6.98313 0.0249023C6.39257 0.0249023 5.91383 0.504314 5.91383 1.0957V2.62752H2.92679C1.32639 2.62752 0.0244141 3.93138 0.0244141 5.53398V27.0685C0.0244141 28.6711 1.32644 29.975 2.92679 29.975H26.6259C28.2263 29.975 29.5282 28.6711 29.5282 27.0685V5.53398C29.5282 3.93133 28.2261 2.62752 26.6258 2.62752ZM2.16296 5.53398C2.16296 5.11156 2.50491 4.76912 2.92674 4.76912H5.91373V5.9911C5.91373 6.58249 6.39247 7.0619 6.98303 7.0619C7.57359 7.0619 8.05232 6.58249 8.05232 5.9911V4.76907H21.5001V5.99105C21.5001 6.58244 21.9788 7.06185 22.5694 7.06185C23.1599 7.06185 23.6387 6.58244 23.6387 5.99105V4.76907H26.6257C27.0475 4.76907 27.3896 5.11156 27.3896 5.53393V8.22623H2.16296V5.53398ZM27.3896 27.0684C27.3896 27.4909 27.0477 27.8334 26.6258 27.8334H2.92679C2.50491 27.8334 2.16301 27.4909 2.16301 27.0684V10.3678H27.3896V27.0684Z" fill="#FF5E29"/>
<path d="M23.6387 2.62752H20.6387V5.62752H23.6387V2.62752ZM21.5001 2.62752V5.62752H24.5001V2.62752H21.5001ZM8.05242 2.62752H5.05242V5.62752H8.05242V2.62752ZM5.91383 2.62752V5.62752H8.91383V2.62752H5.91383ZM29.5282 5.53398L32.5282 5.53398L32.5282 5.53389L29.5282 5.53398ZM5.91373 4.76912H8.91373V1.76912H5.91373V4.76912ZM8.05232 4.76907V1.76907H5.05232V4.76907H8.05232ZM21.5001 4.76907H24.5001V1.76907H21.5001V4.76907ZM23.6387 4.76907V1.76907H20.6387V4.76907H23.6387ZM27.3896 8.22623V11.2262H30.3896V8.22623H27.3896ZM2.16296 8.22623H-0.837043V11.2262H2.16296V8.22623ZM2.16301 10.3678V7.36784H-0.836993V10.3678H2.16301ZM27.3896 10.3678H30.3896V7.36784H27.3896V10.3678ZM26.6258 -0.372479H23.6387V5.62752H26.6258V-0.372479ZM26.6387 2.62752V1.0957H20.6387V2.62752H26.6387ZM26.6387 1.0957C26.6387 -1.14856 24.8208 -2.9751 22.5694 -2.9751V3.0249C21.4992 3.0249 20.6387 2.15719 20.6387 1.0957H26.6387ZM22.5694 -2.9751C20.318 -2.9751 18.5001 -1.14856 18.5001 1.0957H24.5001C24.5001 2.15718 23.6397 3.0249 22.5694 3.0249V-2.9751ZM18.5001 1.0957V2.62752H24.5001V1.0957H18.5001ZM21.5001 -0.372479H8.05242V5.62752H21.5001V-0.372479ZM11.0524 2.62752V1.0957H5.05242V2.62752H11.0524ZM11.0524 1.0957C11.0524 -1.14856 9.23452 -2.9751 6.98313 -2.9751V3.0249C5.91285 3.0249 5.05242 2.15719 5.05242 1.0957H11.0524ZM6.98313 -2.9751C4.73173 -2.9751 2.91383 -1.14856 2.91383 1.0957H8.91383C8.91383 2.15719 8.0534 3.0249 6.98313 3.0249V-2.9751ZM2.91383 1.0957V2.62752H8.91383V1.0957H2.91383ZM5.91383 -0.372479H2.92679V5.62752H5.91383V-0.372479ZM2.92679 -0.372479C-0.334477 -0.372479 -2.97559 2.27854 -2.97559 5.53398H3.02441C3.02441 5.54286 3.02204 5.55782 3.01575 5.57269C3.01031 5.58554 3.00389 5.59396 2.99828 5.59959C2.99266 5.60522 2.9838 5.61209 2.96988 5.61799C2.95392 5.62476 2.93744 5.62752 2.92679 5.62752V-0.372479ZM-2.97559 5.53398V27.0685H3.02441V5.53398H-2.97559ZM-2.97559 27.0685C-2.97559 30.3241 -0.334361 32.975 2.92679 32.975V26.975C2.93744 26.975 2.95392 26.9777 2.96988 26.9845C2.98379 26.9904 2.99265 26.9973 2.99827 27.0029C3.00389 27.0085 3.01031 27.0169 3.01574 27.0298C3.02204 27.0447 3.02441 27.0596 3.02441 27.0685H-2.97559ZM2.92679 32.975H26.6259V26.975H2.92679V32.975ZM26.6259 32.975C29.8872 32.975 32.5282 30.324 32.5282 27.0685H26.5282C26.5282 27.0597 26.5306 27.0447 26.5369 27.0298C26.5423 27.017 26.5487 27.0086 26.5544 27.0029C26.56 26.9973 26.5689 26.9904 26.5828 26.9845C26.5988 26.9777 26.6152 26.975 26.6259 26.975V32.975ZM32.5282 27.0685V5.53398H26.5282V27.0685H32.5282ZM32.5282 5.53389C32.5281 2.27842 29.8869 -0.372479 26.6258 -0.372479V5.62752C26.6151 5.62752 26.5986 5.62476 26.5827 5.61799C26.5688 5.61209 26.5599 5.60523 26.5543 5.59961C26.5487 5.59399 26.5423 5.58558 26.5369 5.57274C26.5306 5.55788 26.5282 5.54293 26.5282 5.53408L32.5282 5.53389ZM5.16296 5.53398C5.16296 6.76443 4.16575 7.76912 2.92674 7.76912V1.76912C0.844078 1.76912 -0.837043 3.45869 -0.837043 5.53398H5.16296ZM2.92674 7.76912H5.91373V1.76912H2.92674V7.76912ZM2.91373 4.76912V5.9911H8.91373V4.76912H2.91373ZM2.91373 5.9911C2.91373 8.23536 4.73163 10.0619 6.98303 10.0619V4.0619C8.0533 4.0619 8.91373 4.92962 8.91373 5.9911H2.91373ZM6.98303 10.0619C9.23442 10.0619 11.0523 8.23536 11.0523 5.9911H5.05232C5.05232 4.92962 5.91275 4.0619 6.98303 4.0619V10.0619ZM11.0523 5.9911V4.76907H5.05232V5.9911H11.0523ZM8.05232 7.76907H21.5001V1.76907H8.05232V7.76907ZM18.5001 4.76907V5.99105H24.5001V4.76907H18.5001ZM18.5001 5.99105C18.5001 8.23531 20.318 10.0618 22.5694 10.0618V4.06185C23.6397 4.06185 24.5001 4.92957 24.5001 5.99105H18.5001ZM22.5694 10.0618C24.8208 10.0618 26.6387 8.23531 26.6387 5.99105H20.6387C20.6387 4.92956 21.4991 4.06185 22.5694 4.06185V10.0618ZM26.6387 5.99105V4.76907H20.6387V5.99105H26.6387ZM23.6387 7.76907H26.6257V1.76907H23.6387V7.76907ZM26.6257 7.76907C25.3869 7.76907 24.3896 6.7647 24.3896 5.53393H30.3896C30.3896 3.45842 28.7081 1.76907 26.6257 1.76907V7.76907ZM24.3896 5.53393V8.22623H30.3896V5.53393H24.3896ZM27.3896 5.22623H2.16296V11.2262H27.3896V5.22623ZM5.16296 8.22623V5.53398H-0.837043V8.22623H5.16296ZM24.3896 27.0684C24.3896 25.8381 25.3867 24.8334 26.6258 24.8334V30.8334C28.7086 30.8334 30.3896 29.1436 30.3896 27.0684H24.3896ZM26.6258 24.8334H2.92679V30.8334H26.6258V24.8334ZM2.92679 24.8334C4.16612 24.8334 5.16301 25.8384 5.16301 27.0684H-0.836993C-0.836993 29.1434 0.843705 30.8334 2.92679 30.8334V24.8334ZM5.16301 27.0684V10.3678H-0.836993V27.0684H5.16301ZM2.16301 13.3678H27.3896V7.36784H2.16301V13.3678ZM24.3896 10.3678V27.0684H30.3896V10.3678H24.3896Z" fill="#FF5E29" mask="url(#path-1-inside-1_415_5)"/>
<mask id="path-3-inside-2_415_5" fill="white">
<path d="M26.6264 30H2.92734C1.31321 30 0 28.6849 0 27.0685V5.53403C0 3.91763 1.31321 2.60257 2.92734 2.60257H5.88942V1.0958C5.88942 0.491559 6.38028 0 6.98367 0C7.58701 0 8.07793 0.491559 8.07793 1.0958V2.60262H21.4757V1.0958C21.4757 0.491559 21.9666 0 22.57 0C23.1734 0 23.6642 0.491559 23.6642 1.0958V2.60262H26.6263C28.2405 2.60262 29.5537 3.91768 29.5537 5.53408V27.0686C29.5537 28.685 28.2405 30 26.6264 30ZM2.92734 2.65261C1.34071 2.65261 0.0499205 3.94522 0.0499205 5.53408V27.0686C0.0499205 28.6574 1.34071 29.9501 2.92734 29.9501H26.6264C28.213 29.9501 29.5038 28.6574 29.5038 27.0686V5.53408C29.5038 3.94522 28.213 2.65261 26.6263 2.65261H23.6143V1.0958C23.6143 0.519154 23.1458 0.0499908 22.57 0.0499908C21.9942 0.0499908 21.5257 0.519154 21.5257 1.0958V2.65261H8.02801V1.0958C8.02801 0.519154 7.5595 0.0499908 6.98367 0.0499908C6.40784 0.0499908 5.93934 0.519154 5.93934 1.0958V2.65261H2.92734ZM26.6263 27.8584H2.92734C2.49243 27.8584 2.13859 27.5041 2.13859 27.0685V10.3429H27.4151V27.0685C27.4151 27.5041 27.0613 27.8584 26.6263 27.8584ZM2.18846 10.3929V27.0685C2.18846 27.4765 2.51988 27.8084 2.92729 27.8084H26.6263C27.0337 27.8084 27.3651 27.4765 27.3651 27.0685V10.3929H2.18846ZM27.4151 8.25137H2.13854V5.53408C2.13854 5.09856 2.49238 4.74422 2.92729 4.74422H5.93924V5.99119C5.93924 6.56783 6.40774 7.037 6.98357 7.037C7.5594 7.037 8.02791 6.56783 8.02791 5.99119V4.74417H21.5256V5.99114C21.5256 6.56778 21.9941 7.03695 22.5699 7.03695C23.1458 7.03695 23.6143 6.56778 23.6143 5.99114V4.74417H26.6263C27.0612 4.74417 27.4151 5.09851 27.4151 5.53403L27.4151 8.25137ZM2.18846 8.20138H27.3651V5.53408C27.3651 5.1261 27.0337 4.79421 26.6263 4.79421H23.6642V5.99119C23.6642 6.59538 23.1733 7.08699 22.5699 7.08699C21.9665 7.08699 21.4757 6.59543 21.4757 5.99119V4.79416H8.07788V5.99114C8.07788 6.59533 7.58701 7.08694 6.98362 7.08694C6.38023 7.08694 5.88937 6.59538 5.88937 5.99114V4.79416H2.92734C2.51993 4.79416 2.18851 5.12605 2.18851 5.53403L2.18846 8.20138Z"/>
</mask>
<path d="M26.6264 30H2.92734C1.31321 30 0 28.6849 0 27.0685V5.53403C0 3.91763 1.31321 2.60257 2.92734 2.60257H5.88942V1.0958C5.88942 0.491559 6.38028 0 6.98367 0C7.58701 0 8.07793 0.491559 8.07793 1.0958V2.60262H21.4757V1.0958C21.4757 0.491559 21.9666 0 22.57 0C23.1734 0 23.6642 0.491559 23.6642 1.0958V2.60262H26.6263C28.2405 2.60262 29.5537 3.91768 29.5537 5.53408V27.0686C29.5537 28.685 28.2405 30 26.6264 30ZM2.92734 2.65261C1.34071 2.65261 0.0499205 3.94522 0.0499205 5.53408V27.0686C0.0499205 28.6574 1.34071 29.9501 2.92734 29.9501H26.6264C28.213 29.9501 29.5038 28.6574 29.5038 27.0686V5.53408C29.5038 3.94522 28.213 2.65261 26.6263 2.65261H23.6143V1.0958C23.6143 0.519154 23.1458 0.0499908 22.57 0.0499908C21.9942 0.0499908 21.5257 0.519154 21.5257 1.0958V2.65261H8.02801V1.0958C8.02801 0.519154 7.5595 0.0499908 6.98367 0.0499908C6.40784 0.0499908 5.93934 0.519154 5.93934 1.0958V2.65261H2.92734ZM26.6263 27.8584H2.92734C2.49243 27.8584 2.13859 27.5041 2.13859 27.0685V10.3429H27.4151V27.0685C27.4151 27.5041 27.0613 27.8584 26.6263 27.8584ZM2.18846 10.3929V27.0685C2.18846 27.4765 2.51988 27.8084 2.92729 27.8084H26.6263C27.0337 27.8084 27.3651 27.4765 27.3651 27.0685V10.3929H2.18846ZM27.4151 8.25137H2.13854V5.53408C2.13854 5.09856 2.49238 4.74422 2.92729 4.74422H5.93924V5.99119C5.93924 6.56783 6.40774 7.037 6.98357 7.037C7.5594 7.037 8.02791 6.56783 8.02791 5.99119V4.74417H21.5256V5.99114C21.5256 6.56778 21.9941 7.03695 22.5699 7.03695C23.1458 7.03695 23.6143 6.56778 23.6143 5.99114V4.74417H26.6263C27.0612 4.74417 27.4151 5.09851 27.4151 5.53403L27.4151 8.25137ZM2.18846 8.20138H27.3651V5.53408C27.3651 5.1261 27.0337 4.79421 26.6263 4.79421H23.6642V5.99119C23.6642 6.59538 23.1733 7.08699 22.5699 7.08699C21.9665 7.08699 21.4757 6.59543 21.4757 5.99119V4.79416H8.07788V5.99114C8.07788 6.59533 7.58701 7.08694 6.98362 7.08694C6.38023 7.08694 5.88937 6.59538 5.88937 5.99114V4.79416H2.92734C2.51993 4.79416 2.18851 5.12605 2.18851 5.53403L2.18846 8.20138Z" fill="#FF5E29"/>
<path d="M5.88942 2.60257V5.60257H8.88942V2.60257H5.88942ZM8.07793 2.60262H5.07793V5.60262H8.07793V2.60262ZM21.4757 2.60262V5.60262H24.4757V2.60262H21.4757ZM23.6642 2.60262H20.6642V5.60262H23.6642V2.60262ZM29.5537 27.0686L32.5537 27.0687V27.0686H29.5537ZM23.6143 2.65261H20.6143V5.65261H23.6143V2.65261ZM21.5257 2.65261V5.65261H24.5257V2.65261H21.5257ZM8.02801 2.65261H5.02801V5.65261H8.02801V2.65261ZM5.93934 2.65261V5.65261H8.93934V2.65261H5.93934ZM2.13859 10.3429V7.34294H-0.861408V10.3429H2.13859ZM27.4151 10.3429H30.4151V7.34294H27.4151V10.3429ZM2.18846 10.3929V7.39293H-0.811537V10.3929H2.18846ZM27.3651 10.3929H30.3651V7.39293H27.3651V10.3929ZM27.4151 8.25137V11.2514H30.4152L30.4151 8.25132L27.4151 8.25137ZM2.13854 8.25137H-0.861458V11.2514H2.13854V8.25137ZM5.93924 4.74422H8.93924V1.74422H5.93924V4.74422ZM8.02791 4.74417V1.74417H5.02791V4.74417H8.02791ZM21.5256 4.74417H24.5256V1.74417H21.5256V4.74417ZM23.6143 4.74417V1.74417H20.6143V4.74417H23.6143ZM27.4151 5.53403L24.4151 5.53403L24.4151 5.53408L27.4151 5.53403ZM2.18846 8.20138L-0.811537 8.20133L-0.811593 11.2014H2.18846V8.20138ZM27.3651 8.20138V11.2014H30.3651V8.20138H27.3651ZM23.6642 4.79421V1.79421H20.6642V4.79421H23.6642ZM21.4757 4.79416H24.4757V1.79416H21.4757V4.79416ZM8.07788 4.79416V1.79416H5.07788V4.79416H8.07788ZM5.88937 4.79416H8.88937V1.79416H5.88937V4.79416ZM2.18851 5.53403L5.18851 5.53408V5.53403H2.18851ZM26.6264 27H2.92734V33H26.6264V27ZM2.92734 27C2.93455 27 2.94776 27.0021 2.96073 27.0076C2.97166 27.0122 2.97783 27.0172 2.98118 27.0206C2.98454 27.024 2.98912 27.0297 2.99329 27.0395C2.99832 27.0514 3 27.0631 3 27.0685H-3C-3 30.3378 -0.347626 33 2.92734 33V27ZM3 27.0685V5.53403H-3V27.0685H3ZM3 5.53403C3 5.53946 2.99832 5.55114 2.99329 5.56303C2.98912 5.57289 2.98454 5.57861 2.98118 5.58197C2.97783 5.58534 2.97166 5.59037 2.96073 5.595C2.94776 5.60051 2.93455 5.60257 2.92734 5.60257V-0.397431C-0.347625 -0.397431 -3 2.26475 -3 5.53403H3ZM2.92734 5.60257H5.88942V-0.397431H2.92734V5.60257ZM8.88942 2.60257V1.0958H2.88942V2.60257H8.88942ZM8.88942 1.0958C8.88942 2.14443 8.04112 3 6.98367 3V-3C4.71945 -3 2.88942 -1.16131 2.88942 1.0958H8.88942ZM6.98367 3C5.92627 3 5.07793 2.14452 5.07793 1.0958H11.0779C11.0779 -1.1614 9.24775 -3 6.98367 -3V3ZM5.07793 1.0958V2.60262H11.0779V1.0958H5.07793ZM8.07793 5.60262H21.4757V-0.397382H8.07793V5.60262ZM24.4757 2.60262V1.0958H18.4757V2.60262H24.4757ZM24.4757 1.0958C24.4757 2.14443 23.6274 3 22.57 3V-3C20.3058 -3 18.4757 -1.16131 18.4757 1.0958H24.4757ZM22.57 3C21.5125 3 20.6642 2.14443 20.6642 1.0958H26.6642C26.6642 -1.16132 24.8342 -3 22.57 -3V3ZM20.6642 1.0958V2.60262H26.6642V1.0958H20.6642ZM23.6642 5.60262H26.6263V-0.397382H23.6642V5.60262ZM26.6263 5.60262C26.6191 5.60262 26.6059 5.60056 26.593 5.59506C26.5821 5.59043 26.5759 5.5854 26.5725 5.58204C26.5692 5.57868 26.5646 5.57295 26.5604 5.56308C26.5554 5.5512 26.5537 5.53951 26.5537 5.53408H32.5537C32.5537 2.26477 29.9013 -0.397382 26.6263 -0.397382V5.60262ZM26.5537 5.53408V27.0686H32.5537V5.53408H26.5537ZM26.5537 27.0685C26.5537 27.0631 26.5554 27.0514 26.5604 27.0396C26.5646 27.0297 26.5692 27.024 26.5725 27.0206C26.5759 27.0173 26.5821 27.0122 26.593 27.0076C26.606 27.0021 26.6192 27 26.6264 27V33C29.9014 33 32.5536 30.3378 32.5537 27.0687L26.5537 27.0685ZM2.92734 -0.347391C-0.32012 -0.347391 -2.95008 2.29235 -2.95008 5.53408H3.04992C3.04992 5.54638 3.04685 5.56463 3.03929 5.5825C3.03259 5.59834 3.02434 5.60946 3.01646 5.61735C3.00857 5.62524 2.99702 5.63394 2.98012 5.64111C2.96118 5.64915 2.94142 5.65261 2.92734 5.65261V-0.347391ZM-2.95008 5.53408V27.0686H3.04992V5.53408H-2.95008ZM-2.95008 27.0686C-2.95008 30.3102 -0.320154 32.9501 2.92734 32.9501V26.9501C2.94144 26.9501 2.9612 26.9535 2.98015 26.9616C2.99705 26.9687 3.0086 26.9774 3.01647 26.9853C3.02434 26.9932 3.03259 27.0043 3.03929 27.0201C3.04684 27.038 3.04992 27.0563 3.04992 27.0686H-2.95008ZM2.92734 32.9501H26.6264V26.9501H2.92734V32.9501ZM26.6264 32.9501C29.8739 32.9501 32.5038 30.3103 32.5038 27.0686H26.5038C26.5038 27.0563 26.5069 27.038 26.5144 27.0202C26.5211 27.0043 26.5294 26.9932 26.5372 26.9853C26.5451 26.9774 26.5567 26.9687 26.5736 26.9616C26.5925 26.9535 26.6123 26.9501 26.6264 26.9501V32.9501ZM32.5038 27.0686V5.53408H26.5038V27.0686H32.5038ZM32.5038 5.53408C32.5038 2.29231 29.8738 -0.347391 26.6263 -0.347391V5.65261C26.6123 5.65261 26.5925 5.64916 26.5736 5.64112C26.5567 5.63396 26.5451 5.62526 26.5373 5.61736C26.5294 5.60947 26.5211 5.59835 26.5144 5.5825C26.5069 5.56464 26.5038 5.54638 26.5038 5.53408H32.5038ZM26.6263 -0.347391H23.6143V5.65261H26.6263V-0.347391ZM26.6143 2.65261V1.0958H20.6143V2.65261H26.6143ZM26.6143 1.0958C26.6143 -1.13372 24.8066 -2.95001 22.57 -2.95001V3.04999C21.485 3.04999 20.6143 2.17203 20.6143 1.0958H26.6143ZM22.57 -2.95001C20.3333 -2.95001 18.5257 -1.13372 18.5257 1.0958H24.5257C24.5257 2.17202 23.655 3.04999 22.57 3.04999V-2.95001ZM18.5257 1.0958V2.65261H24.5257V1.0958H18.5257ZM21.5257 -0.347391H8.02801V5.65261H21.5257V-0.347391ZM11.028 2.65261V1.0958H5.02801V2.65261H11.028ZM11.028 1.0958C11.028 -1.13372 9.22034 -2.95001 6.98367 -2.95001V3.04999C5.89867 3.04999 5.02801 2.17203 5.02801 1.0958H11.028ZM6.98367 -2.95001C4.747 -2.95001 2.93934 -1.13372 2.93934 1.0958H8.93934C8.93934 2.17202 8.06867 3.04999 6.98367 3.04999V-2.95001ZM2.93934 1.0958V2.65261H8.93934V1.0958H2.93934ZM5.93934 -0.347391H2.92734V5.65261H5.93934V-0.347391ZM26.6263 24.8584H2.92734V30.8584H26.6263V24.8584ZM2.92734 24.8584C4.15339 24.8584 5.13859 25.8513 5.13859 27.0685H-0.861408C-0.861408 29.1568 0.831466 30.8584 2.92734 30.8584V24.8584ZM5.13859 27.0685V10.3429H-0.861408V27.0685H5.13859ZM2.13859 13.3429H27.4151V7.34294H2.13859V13.3429ZM24.4151 10.3429V27.0685H30.4151V10.3429H24.4151ZM24.4151 27.0685C24.4151 25.8511 25.4006 24.8584 26.6263 24.8584V30.8584C28.722 30.8584 30.4151 29.1571 30.4151 27.0685H24.4151ZM-0.811537 10.3929V27.0685H5.18846V10.3929H-0.811537ZM-0.811537 27.0685C-0.811537 29.1291 0.858781 30.8084 2.92729 30.8084V24.8084C4.18099 24.8084 5.18846 25.8239 5.18846 27.0685H-0.811537ZM2.92729 30.8084H26.6263V24.8084H2.92729V30.8084ZM26.6263 30.8084C28.6945 30.8084 30.3651 29.1293 30.3651 27.0685H24.3651C24.3651 25.8236 25.3728 24.8084 26.6263 24.8084V30.8084ZM30.3651 27.0685V10.3929H24.3651V27.0685H30.3651ZM27.3651 7.39293H2.18846V13.3929H27.3651V7.39293ZM27.4151 5.25137H2.13854V11.2514H27.4151V5.25137ZM5.13854 8.25137V5.53408H-0.861458V8.25137H5.13854ZM5.13854 5.53408C5.13854 6.75143 4.15321 7.74422 2.92729 7.74422V1.74422C0.831545 1.74422 -0.861458 3.44569 -0.861458 5.53408H5.13854ZM2.92729 7.74422H5.93924V1.74422H2.92729V7.74422ZM2.93924 4.74422V5.99119H8.93924V4.74422H2.93924ZM2.93924 5.99119C2.93924 8.2207 4.7469 10.037 6.98357 10.037V4.037C8.06858 4.037 8.93924 4.91496 8.93924 5.99119H2.93924ZM6.98357 10.037C9.22024 10.037 11.0279 8.22071 11.0279 5.99119H5.02791C5.02791 4.91496 5.89857 4.037 6.98357 4.037V10.037ZM11.0279 5.99119V4.74417H5.02791V5.99119H11.0279ZM8.02791 7.74417H21.5256V1.74417H8.02791V7.74417ZM18.5256 4.74417V5.99114H24.5256V4.74417H18.5256ZM18.5256 5.99114C18.5256 8.22065 20.3333 10.0369 22.5699 10.0369V4.03695C23.6549 4.03695 24.5256 4.91491 24.5256 5.99114H18.5256ZM22.5699 10.0369C24.8066 10.0369 26.6143 8.22066 26.6143 5.99114H20.6143C20.6143 4.91491 21.4849 4.03695 22.5699 4.03695V10.0369ZM26.6143 5.99114V4.74417H20.6143V5.99114H26.6143ZM23.6143 7.74417H26.6263V1.74417H23.6143V7.74417ZM26.6263 7.74417C25.4005 7.74417 24.4151 6.75151 24.4151 5.53403H30.4151C30.4151 3.4455 28.7219 1.74417 26.6263 1.74417V7.74417ZM24.4151 5.53408L24.4151 8.25143L30.4151 8.25132L30.4151 5.53397L24.4151 5.53408ZM2.18846 11.2014H27.3651V5.20138H2.18846V11.2014ZM30.3651 8.20138V5.53408H24.3651V8.20138H30.3651ZM30.3651 5.53408C30.3651 3.47296 28.6942 1.79421 26.6263 1.79421V7.79421C25.3731 7.79421 24.3651 6.77924 24.3651 5.53408H30.3651ZM26.6263 1.79421H23.6642V7.79421H26.6263V1.79421ZM20.6642 4.79421V5.99119H26.6642V4.79421H20.6642ZM20.6642 5.99119C20.6642 4.94259 21.5124 4.08699 22.5699 4.08699V10.087C24.8342 10.087 26.6642 8.24816 26.6642 5.99119H20.6642ZM22.5699 4.08699C23.6274 4.08699 24.4757 4.94256 24.4757 5.99119H18.4757C18.4757 8.2483 20.3057 10.087 22.5699 10.087V4.08699ZM24.4757 5.99119V4.79416H18.4757V5.99119H24.4757ZM21.4757 1.79416H8.07788V7.79416H21.4757V1.79416ZM5.07788 4.79416V5.99114H11.0779V4.79416H5.07788ZM5.07788 5.99114C5.07788 4.94254 5.92609 4.08694 6.98362 4.08694V10.0869C9.24793 10.0869 11.0779 8.24812 11.0779 5.99114H5.07788ZM6.98362 4.08694C8.04107 4.08694 8.88937 4.94251 8.88937 5.99114H2.88937C2.88937 8.24825 4.7194 10.0869 6.98362 10.0869V4.08694ZM8.88937 5.99114V4.79416H2.88937V5.99114H8.88937ZM5.88937 1.79416H2.92734V7.79416H5.88937V1.79416ZM2.92734 1.79416C0.859103 1.79416 -0.811487 3.47318 -0.811487 5.53403H5.18851C5.18851 6.77893 4.18077 7.79416 2.92734 7.79416V1.79416ZM-0.811487 5.53397L-0.811537 8.20133L5.18846 8.20144L5.18851 5.53408L-0.811487 5.53397Z" fill="#FF5E29" mask="url(#path-3-inside-2_415_5)"/>
<mask id="path-5-inside-3_415_5" fill="white">
<path d="M14.419 26.7206H15.352C16.9524 26.7206 18.2545 25.4168 18.2545 23.8141V22.8797C18.2545 21.2771 16.9524 19.9733 15.352 19.9733H14.419C12.8186 19.9733 11.5166 21.2771 11.5166 22.8797V23.8141C11.5166 25.4168 12.8186 26.7206 14.419 26.7206ZM13.6552 22.8797C13.6552 22.458 13.9978 22.1149 14.419 22.1149H15.352C15.7733 22.1149 16.1159 22.458 16.1159 22.8797V23.8141C16.1159 24.2359 15.7733 24.579 15.352 24.579H14.419C13.9978 24.579 13.6552 24.2359 13.6552 23.8141V22.8797Z"/>
</mask>
<path d="M14.419 26.7206H15.352C16.9524 26.7206 18.2545 25.4168 18.2545 23.8141V22.8797C18.2545 21.2771 16.9524 19.9733 15.352 19.9733H14.419C12.8186 19.9733 11.5166 21.2771 11.5166 22.8797V23.8141C11.5166 25.4168 12.8186 26.7206 14.419 26.7206ZM13.6552 22.8797C13.6552 22.458 13.9978 22.1149 14.419 22.1149H15.352C15.7733 22.1149 16.1159 22.458 16.1159 22.8797V23.8141C16.1159 24.2359 15.7733 24.579 15.352 24.579H14.419C13.9978 24.579 13.6552 24.2359 13.6552 23.8141V22.8797Z" fill="#FF5E29"/>
<path d="M14.419 29.7206H15.352V23.7206H14.419V29.7206ZM15.352 29.7206C18.6132 29.7206 21.2545 27.0697 21.2545 23.8141H15.2545C15.2545 23.8052 15.2568 23.7903 15.2631 23.7754C15.2686 23.7625 15.275 23.7541 15.2806 23.7485C15.2862 23.7429 15.2951 23.736 15.309 23.7301C15.3249 23.7233 15.3414 23.7206 15.352 23.7206V29.7206ZM21.2545 23.8141V22.8797H15.2545V23.8141H21.2545ZM21.2545 22.8797C21.2545 19.6242 18.6132 16.9733 15.352 16.9733V22.9733C15.3414 22.9733 15.3249 22.9705 15.309 22.9637C15.2951 22.9578 15.2862 22.951 15.2806 22.9454C15.275 22.9397 15.2686 22.9313 15.2631 22.9185C15.2568 22.9036 15.2545 22.8886 15.2545 22.8797H21.2545ZM15.352 16.9733H14.419V22.9733H15.352V16.9733ZM14.419 16.9733C11.1578 16.9733 8.5166 19.6243 8.5166 22.8797H14.5166C14.5166 22.8886 14.5142 22.9036 14.5079 22.9185C14.5025 22.9313 14.4961 22.9397 14.4905 22.9453C14.4849 22.951 14.476 22.9578 14.4621 22.9637C14.4461 22.9705 14.4296 22.9733 14.419 22.9733V16.9733ZM8.5166 22.8797V23.8141H14.5166V22.8797H8.5166ZM8.5166 23.8141C8.5166 27.0696 11.1577 29.7206 14.419 29.7206V23.7206C14.4296 23.7206 14.4461 23.7233 14.462 23.7301C14.476 23.736 14.4848 23.7429 14.4905 23.7485C14.4961 23.7541 14.5025 23.7626 14.5079 23.7754C14.5142 23.7903 14.5166 23.8053 14.5166 23.8141H8.5166ZM16.6552 22.8797C16.6552 24.1109 15.6587 25.1149 14.419 25.1149V19.1149C12.337 19.1149 10.6552 20.8051 10.6552 22.8797H16.6552ZM14.419 25.1149H15.352V19.1149H14.419V25.1149ZM15.352 25.1149C14.1124 25.1149 13.1159 24.1109 13.1159 22.8797H19.1159C19.1159 20.8051 17.4341 19.1149 15.352 19.1149V25.1149ZM13.1159 22.8797V23.8141H19.1159V22.8797H13.1159ZM13.1159 23.8141C13.1159 22.5829 14.1126 21.579 15.352 21.579V27.579C17.434 27.579 19.1159 25.8889 19.1159 23.8141H13.1159ZM15.352 21.579H14.419V27.579H15.352V21.579ZM14.419 21.579C15.6586 21.579 16.6552 22.5829 16.6552 23.8141H10.6552C10.6552 25.8889 12.3371 27.579 14.419 27.579V21.579ZM16.6552 23.8141V22.8797H10.6552V23.8141H16.6552Z" fill="#FF5E29" mask="url(#path-5-inside-3_415_5)"/>
<mask id="path-7-inside-4_415_5" fill="white">
<path d="M15.3526 26.7455H14.4195C12.8054 26.7455 11.4922 25.4305 11.4922 23.8141V22.8797C11.4922 21.2633 12.8054 19.9482 14.4195 19.9482H15.3526C16.9668 19.9482 18.28 21.2633 18.28 22.8797V23.8141C18.28 25.4305 16.9668 26.7455 15.3526 26.7455ZM14.4196 19.9982C12.833 19.9982 11.5422 21.2908 11.5422 22.8797V23.8141C11.5422 25.4029 12.833 26.6955 14.4196 26.6955H15.3526C16.9393 26.6955 18.2301 25.4029 18.2301 23.8141V22.8797C18.2301 21.2909 16.9393 19.9982 15.3526 19.9982H14.4196ZM15.3526 24.6039H14.4195C13.9846 24.6039 13.6308 24.2496 13.6308 23.8141V22.8797C13.6308 22.4442 13.9846 22.0898 14.4195 22.0898H15.3526C15.7875 22.0898 16.1414 22.4442 16.1414 22.8797V23.8141C16.1414 24.2496 15.7875 24.6039 15.3526 24.6039ZM14.4196 22.1398C14.0122 22.1398 13.6808 22.4718 13.6808 22.8797V23.8141C13.6808 24.222 14.0122 24.5539 14.4196 24.5539H15.3526C15.76 24.5539 16.0915 24.222 16.0915 23.8141V22.8797C16.0915 22.4718 15.76 22.1398 15.3526 22.1398H14.4196Z"/>
</mask>
<path d="M15.3526 26.7455H14.4195C12.8054 26.7455 11.4922 25.4305 11.4922 23.8141V22.8797C11.4922 21.2633 12.8054 19.9482 14.4195 19.9482H15.3526C16.9668 19.9482 18.28 21.2633 18.28 22.8797V23.8141C18.28 25.4305 16.9668 26.7455 15.3526 26.7455ZM14.4196 19.9982C12.833 19.9982 11.5422 21.2908 11.5422 22.8797V23.8141C11.5422 25.4029 12.833 26.6955 14.4196 26.6955H15.3526C16.9393 26.6955 18.2301 25.4029 18.2301 23.8141V22.8797C18.2301 21.2909 16.9393 19.9982 15.3526 19.9982H14.4196ZM15.3526 24.6039H14.4195C13.9846 24.6039 13.6308 24.2496 13.6308 23.8141V22.8797C13.6308 22.4442 13.9846 22.0898 14.4195 22.0898H15.3526C15.7875 22.0898 16.1414 22.4442 16.1414 22.8797V23.8141C16.1414 24.2496 15.7875 24.6039 15.3526 24.6039ZM14.4196 22.1398C14.0122 22.1398 13.6808 22.4718 13.6808 22.8797V23.8141C13.6808 24.222 14.0122 24.5539 14.4196 24.5539H15.3526C15.76 24.5539 16.0915 24.222 16.0915 23.8141V22.8797C16.0915 22.4718 15.76 22.1398 15.3526 22.1398H14.4196Z" fill="#FF5E29"/>
<path d="M15.3526 23.7455H14.4195V29.7455H15.3526V23.7455ZM14.4195 23.7455C14.4267 23.7455 14.4399 23.7476 14.4529 23.7531C14.4638 23.7577 14.47 23.7628 14.4734 23.7661C14.4767 23.7695 14.4813 23.7752 14.4855 23.7851C14.4905 23.797 14.4922 23.8086 14.4922 23.8141H8.49219C8.49219 27.0834 11.1446 29.7455 14.4195 29.7455V23.7455ZM14.4922 23.8141V22.8797H8.49219V23.8141H14.4922ZM14.4922 22.8797C14.4922 22.8851 14.4905 22.8968 14.4855 22.9087C14.4813 22.9186 14.4767 22.9243 14.4734 22.9276C14.47 22.931 14.4638 22.936 14.4529 22.9407C14.4399 22.9462 14.4267 22.9482 14.4195 22.9482V16.9482C11.1446 16.9482 8.49219 19.6104 8.49219 22.8797H14.4922ZM14.4195 22.9482H15.3526V16.9482H14.4195V22.9482ZM15.3526 22.9482C15.3454 22.9482 15.3322 22.9462 15.3192 22.9407C15.3083 22.9361 15.3022 22.931 15.2988 22.9277C15.2954 22.9243 15.2909 22.9186 15.2867 22.9087C15.2817 22.8968 15.28 22.8851 15.28 22.8797H21.28C21.28 19.6104 18.6276 16.9482 15.3526 16.9482V22.9482ZM15.28 22.8797V23.8141H21.28V22.8797H15.28ZM15.28 23.8141C15.28 23.8086 15.2817 23.797 15.2867 23.7851C15.2909 23.7752 15.2954 23.7695 15.2988 23.7661C15.3022 23.7628 15.3083 23.7577 15.3192 23.7531C15.3322 23.7476 15.3454 23.7455 15.3526 23.7455V29.7455C18.6276 29.7455 21.28 27.0834 21.28 23.8141H15.28ZM14.4196 16.9982C11.1721 16.9982 8.54216 19.638 8.54216 22.8797H14.5422C14.5422 22.892 14.5391 22.9103 14.5315 22.9281C14.5248 22.944 14.5166 22.9551 14.5087 22.963C14.5008 22.9709 14.4893 22.9796 14.4724 22.9867C14.4534 22.9948 14.4337 22.9982 14.4196 22.9982V16.9982ZM8.54216 22.8797V23.8141H14.5422V22.8797H8.54216ZM8.54216 23.8141C8.54216 27.0557 11.1721 29.6955 14.4196 29.6955V23.6955C14.4337 23.6955 14.4534 23.699 14.4724 23.707C14.4893 23.7142 14.5008 23.7229 14.5087 23.7308C14.5166 23.7387 14.5248 23.7498 14.5315 23.7656C14.5391 23.7835 14.5422 23.8017 14.5422 23.8141H8.54216ZM14.4196 29.6955H15.3526V23.6955H14.4196V29.6955ZM15.3526 29.6955C18.6 29.6955 21.2301 27.0559 21.2301 23.8141H15.2301C15.2301 23.8018 15.2332 23.7835 15.2407 23.7656C15.2474 23.7498 15.2557 23.7387 15.2636 23.7308C15.2714 23.7229 15.283 23.7142 15.2999 23.707C15.3188 23.699 15.3386 23.6955 15.3526 23.6955V29.6955ZM21.2301 23.8141V22.8797H15.2301V23.8141H21.2301ZM21.2301 22.8797C21.2301 19.638 18.6001 16.9982 15.3526 16.9982V22.9982C15.3386 22.9982 15.3188 22.9948 15.2999 22.9867C15.283 22.9796 15.2714 22.9709 15.2636 22.963C15.2557 22.9551 15.2474 22.944 15.2407 22.9282C15.2332 22.9103 15.2301 22.892 15.2301 22.8797H21.2301ZM15.3526 16.9982H14.4196V22.9982H15.3526V16.9982ZM15.3526 21.6039H14.4195V27.6039H15.3526V21.6039ZM14.4195 21.6039C15.6454 21.6039 16.6308 22.5967 16.6308 23.8141H10.6308C10.6308 25.9025 12.3238 27.6039 14.4195 27.6039V21.6039ZM16.6308 23.8141V22.8797H10.6308V23.8141H16.6308ZM16.6308 22.8797C16.6308 24.0971 15.6454 25.0898 14.4195 25.0898V19.0898C12.3238 19.0898 10.6308 20.7913 10.6308 22.8797H16.6308ZM14.4195 25.0898H15.3526V19.0898H14.4195V25.0898ZM15.3526 25.0898C14.1268 25.0898 13.1414 24.0972 13.1414 22.8797H19.1414C19.1414 20.7912 17.4483 19.0898 15.3526 19.0898V25.0898ZM13.1414 22.8797V23.8141H19.1414V22.8797H13.1414ZM13.1414 23.8141C13.1414 22.5966 14.1268 21.6039 15.3526 21.6039V27.6039C17.4483 27.6039 19.1414 25.9026 19.1414 23.8141H13.1414ZM14.4196 19.1398C12.3512 19.1398 10.6808 20.819 10.6808 22.8797H16.6808C16.6808 24.1245 15.6731 25.1398 14.4196 25.1398V19.1398ZM10.6808 22.8797V23.8141H16.6808V22.8797H10.6808ZM10.6808 23.8141C10.6808 25.8747 12.3512 27.5539 14.4196 27.5539V21.5539C15.6731 21.5539 16.6808 22.5693 16.6808 23.8141H10.6808ZM14.4196 27.5539H15.3526V21.5539H14.4196V27.5539ZM15.3526 27.5539C17.4207 27.5539 19.0915 25.875 19.0915 23.8141H13.0915C13.0915 22.569 14.0993 21.5539 15.3526 21.5539V27.5539ZM19.0915 23.8141V22.8797H13.0915V23.8141H19.0915ZM19.0915 22.8797C19.0915 20.8188 17.4207 19.1398 15.3526 19.1398V25.1398C14.0993 25.1398 13.0915 24.1248 13.0915 22.8797H19.0915ZM15.3526 19.1398H14.4196V25.1398H15.3526V19.1398Z" fill="#FF5E29" mask="url(#path-7-inside-4_415_5)"/>
<mask id="path-9-inside-5_415_5" fill="white">
<path d="M6.08988 26.7206H7.02294C8.62334 26.7206 9.92531 25.4168 9.92531 23.8141V22.8797C9.92531 21.2771 8.62329 19.9733 7.02294 19.9733H6.08988C4.48948 19.9733 3.1875 21.2771 3.1875 22.8797V23.8141C3.1875 25.4168 4.48948 26.7206 6.08988 26.7206ZM5.32604 22.8797C5.32604 22.458 5.6687 22.1149 6.08983 22.1149H7.02289C7.44407 22.1149 7.78667 22.458 7.78667 22.8797V23.8141C7.78667 24.2359 7.44407 24.579 7.02289 24.579H6.08983C5.66865 24.579 5.32604 24.2359 5.32604 23.8141V22.8797Z"/>
</mask>
<path d="M6.08988 26.7206H7.02294C8.62334 26.7206 9.92531 25.4168 9.92531 23.8141V22.8797C9.92531 21.2771 8.62329 19.9733 7.02294 19.9733H6.08988C4.48948 19.9733 3.1875 21.2771 3.1875 22.8797V23.8141C3.1875 25.4168 4.48948 26.7206 6.08988 26.7206ZM5.32604 22.8797C5.32604 22.458 5.6687 22.1149 6.08983 22.1149H7.02289C7.44407 22.1149 7.78667 22.458 7.78667 22.8797V23.8141C7.78667 24.2359 7.44407 24.579 7.02289 24.579H6.08983C5.66865 24.579 5.32604 24.2359 5.32604 23.8141V22.8797Z" fill="#FF5E29"/>
<path d="M3.1875 23.8141H6.1875H3.1875ZM6.08988 29.7206H7.02294V23.7206H6.08988V29.7206ZM7.02294 29.7206C10.2842 29.7206 12.9253 27.0696 12.9253 23.8141H6.92531C6.92531 23.8053 6.92769 23.7903 6.93398 23.7754C6.93942 23.7626 6.94584 23.7541 6.95146 23.7485C6.95709 23.7429 6.96596 23.736 6.97987 23.7301C6.99584 23.7233 7.01231 23.7206 7.02294 23.7206V29.7206ZM12.9253 23.8141V22.8797H6.92531V23.8141H12.9253ZM12.9253 22.8797C12.9253 19.6243 10.2841 16.9733 7.02294 16.9733V22.9733C7.01227 22.9733 6.99578 22.9705 6.97982 22.9637C6.96591 22.9578 6.95706 22.951 6.95145 22.9453C6.94584 22.9397 6.93942 22.9313 6.93399 22.9185C6.9277 22.9036 6.92531 22.8886 6.92531 22.8797H12.9253ZM7.02294 16.9733H6.08988V22.9733H7.02294V16.9733ZM6.08988 16.9733C2.82861 16.9733 0.1875 19.6243 0.1875 22.8797H6.1875C6.1875 22.8886 6.18512 22.9036 6.17883 22.9184C6.1734 22.9313 6.16698 22.9397 6.16136 22.9453C6.15574 22.951 6.14688 22.9578 6.13297 22.9637C6.117 22.9705 6.10052 22.9733 6.08988 22.9733V16.9733ZM0.1875 22.8797V23.8141H6.1875V22.8797H0.1875ZM0.1875 23.8141C0.1875 27.0696 2.82864 29.7206 6.08988 29.7206V23.7206C6.10051 23.7206 6.11698 23.7233 6.13294 23.7301C6.14686 23.736 6.15572 23.7429 6.16135 23.7485C6.16698 23.7541 6.1734 23.7626 6.17883 23.7754C6.18513 23.7903 6.1875 23.8053 6.1875 23.8141L0.1875 23.8141ZM8.32604 22.8797C8.32604 24.1109 7.32953 25.1149 6.08983 25.1149V19.1149C4.00787 19.1149 2.32604 20.8051 2.32604 22.8797H8.32604ZM6.08983 25.1149H7.02289V19.1149H6.08983V25.1149ZM7.02289 25.1149C5.78311 25.1149 4.78667 24.1108 4.78667 22.8797H10.7867C10.7867 20.8053 9.10502 19.1149 7.02289 19.1149V25.1149ZM4.78667 22.8797V23.8141H10.7867V22.8797H4.78667ZM4.78667 23.8141C4.78667 22.583 5.78324 21.579 7.02289 21.579V27.579C9.1049 27.579 10.7867 25.8888 10.7867 23.8141H4.78667ZM7.02289 21.579H6.08983V27.579H7.02289V21.579ZM6.08983 21.579C7.32948 21.579 8.32604 22.583 8.32604 23.8141H2.32604C2.32604 25.8888 4.00782 27.579 6.08983 27.579V21.579ZM8.32604 23.8141V22.8797H2.32604V23.8141H8.32604Z" fill="#FF5E29" mask="url(#path-9-inside-5_415_5)"/>
<mask id="path-11-inside-6_415_5" fill="white">
<path d="M7.02251 26.7455H6.08945C4.47532 26.7455 3.16211 25.4305 3.16211 23.8141V22.8797C3.16211 21.2633 4.47532 19.9482 6.08945 19.9482H7.02251C8.63664 19.9482 9.94984 21.2633 9.94984 22.8797V23.8141C9.94984 25.4305 8.63664 26.7455 7.02251 26.7455ZM6.08945 19.9982C4.50282 19.9982 3.21203 21.2908 3.21203 22.8797V23.8141C3.21203 25.4029 4.50282 26.6955 6.08945 26.6955H7.02251C8.60913 26.6955 9.89992 25.4029 9.89992 23.8141V22.8797C9.89992 21.2909 8.60913 19.9982 7.02251 19.9982H6.08945ZM7.02251 24.6039H6.08945C5.65454 24.6039 5.3007 24.2496 5.3007 23.8141V22.8797C5.3007 22.4442 5.65454 22.0898 6.08945 22.0898H7.02251C7.45742 22.0898 7.81125 22.4442 7.81125 22.8797V23.8141C7.8112 24.2496 7.45737 24.6039 7.02251 24.6039ZM6.08945 22.1398C5.68204 22.1398 5.35062 22.4718 5.35062 22.8797V23.8141C5.35062 24.222 5.68204 24.5539 6.08945 24.5539H7.02251C7.42991 24.5539 7.76133 24.222 7.76133 23.8141V22.8797C7.76133 22.4718 7.42991 22.1398 7.02251 22.1398H6.08945Z"/>
</mask>
<path d="M7.02251 26.7455H6.08945C4.47532 26.7455 3.16211 25.4305 3.16211 23.8141V22.8797C3.16211 21.2633 4.47532 19.9482 6.08945 19.9482H7.02251C8.63664 19.9482 9.94984 21.2633 9.94984 22.8797V23.8141C9.94984 25.4305 8.63664 26.7455 7.02251 26.7455ZM6.08945 19.9982C4.50282 19.9982 3.21203 21.2908 3.21203 22.8797V23.8141C3.21203 25.4029 4.50282 26.6955 6.08945 26.6955H7.02251C8.60913 26.6955 9.89992 25.4029 9.89992 23.8141V22.8797C9.89992 21.2909 8.60913 19.9982 7.02251 19.9982H6.08945ZM7.02251 24.6039H6.08945C5.65454 24.6039 5.3007 24.2496 5.3007 23.8141V22.8797C5.3007 22.4442 5.65454 22.0898 6.08945 22.0898H7.02251C7.45742 22.0898 7.81125 22.4442 7.81125 22.8797V23.8141C7.8112 24.2496 7.45737 24.6039 7.02251 24.6039ZM6.08945 22.1398C5.68204 22.1398 5.35062 22.4718 5.35062 22.8797V23.8141C5.35062 24.222 5.68204 24.5539 6.08945 24.5539H7.02251C7.42991 24.5539 7.76133 24.222 7.76133 23.8141V22.8797C7.76133 22.4718 7.42991 22.1398 7.02251 22.1398H6.08945Z" fill="#FF5E29"/>
<path d="M9.94984 23.8141H12.9498H9.94984ZM7.81125 23.8141L10.8113 23.8144V23.8141H7.81125ZM7.02251 23.7455H6.08945V29.7455H7.02251V23.7455ZM6.08945 23.7455C6.09666 23.7455 6.10987 23.7476 6.12284 23.7531C6.13377 23.7577 6.13994 23.7628 6.14329 23.7661C6.14665 23.7695 6.15123 23.7752 6.1554 23.7851C6.16043 23.797 6.16211 23.8086 6.16211 23.8141H0.162109C0.162109 27.0834 2.81448 29.7455 6.08945 29.7455V23.7455ZM6.16211 23.8141V22.8797H0.162109V23.8141H6.16211ZM6.16211 22.8797C6.16211 22.8851 6.16043 22.8968 6.1554 22.9087C6.15123 22.9186 6.14665 22.9243 6.14329 22.9276C6.13994 22.931 6.13377 22.936 6.12284 22.9407C6.10987 22.9462 6.09666 22.9482 6.08945 22.9482V16.9482C2.81448 16.9482 0.162109 19.6104 0.162109 22.8797H6.16211ZM6.08945 22.9482H7.02251V16.9482H6.08945V22.9482ZM7.02251 22.9482C7.01529 22.9482 7.00209 22.9462 6.98911 22.9407C6.97819 22.936 6.97202 22.931 6.96866 22.9276C6.96531 22.9243 6.96072 22.9186 6.95655 22.9087C6.95152 22.8968 6.94984 22.8851 6.94984 22.8797H12.9498C12.9498 19.6104 10.2975 16.9482 7.02251 16.9482V22.9482ZM6.94984 22.8797V23.8141H12.9498V22.8797H6.94984ZM6.94984 23.8141C6.94984 23.8086 6.95152 23.797 6.95655 23.7851C6.96072 23.7752 6.96531 23.7695 6.96866 23.7661C6.97202 23.7628 6.97819 23.7577 6.98911 23.7531C7.00209 23.7476 7.01529 23.7455 7.02251 23.7455V29.7455C10.2975 29.7455 12.9498 27.0834 12.9498 23.8141L6.94984 23.8141ZM6.08945 16.9982C2.84199 16.9982 0.21203 19.638 0.21203 22.8797H6.21203C6.21203 22.892 6.20896 22.9103 6.2014 22.9281C6.1947 22.944 6.18645 22.9551 6.17857 22.963C6.17068 22.9709 6.15913 22.9796 6.14223 22.9867C6.12329 22.9948 6.10353 22.9982 6.08945 22.9982V16.9982ZM0.21203 22.8797V23.8141H6.21203V22.8797H0.21203ZM0.21203 23.8141C0.21203 27.0557 2.84196 29.6955 6.08945 29.6955V23.6955C6.10355 23.6955 6.12331 23.699 6.14226 23.707C6.15916 23.7142 6.17071 23.7229 6.17858 23.7308C6.18645 23.7387 6.1947 23.7498 6.20139 23.7656C6.20895 23.7835 6.21203 23.8017 6.21203 23.8141H0.21203ZM6.08945 29.6955H7.02251V23.6955H6.08945V29.6955ZM7.02251 29.6955C10.27 29.6955 12.8999 27.0558 12.8999 23.8141H6.89992C6.89992 23.8018 6.903 23.7835 6.91056 23.7657C6.91726 23.7498 6.92551 23.7387 6.93339 23.7308C6.94127 23.7229 6.95282 23.7142 6.96972 23.707C6.98867 23.699 7.00842 23.6955 7.02251 23.6955V29.6955ZM12.8999 23.8141V22.8797H6.89992V23.8141H12.8999ZM12.8999 22.8797C12.8999 19.6381 10.27 16.9982 7.02251 16.9982V22.9982C7.00841 22.9982 6.98864 22.9948 6.96969 22.9867C6.9528 22.9796 6.94125 22.9709 6.93337 22.963C6.9255 22.9551 6.91726 22.944 6.91056 22.9281C6.903 22.9103 6.89992 22.892 6.89992 22.8797H12.8999ZM7.02251 16.9982H6.08945V22.9982H7.02251V16.9982ZM7.02251 21.6039H6.08945V27.6039H7.02251V21.6039ZM6.08945 21.6039C7.31537 21.6039 8.3007 22.5967 8.3007 23.8141H2.3007C2.3007 25.9025 3.99371 27.6039 6.08945 27.6039V21.6039ZM8.3007 23.8141V22.8797H2.3007V23.8141H8.3007ZM8.3007 22.8797C8.3007 24.0971 7.31537 25.0898 6.08945 25.0898V19.0898C3.99371 19.0898 2.3007 20.7913 2.3007 22.8797H8.3007ZM6.08945 25.0898H7.02251V19.0898H6.08945V25.0898ZM7.02251 25.0898C5.79658 25.0898 4.81125 24.0971 4.81125 22.8797H10.8113C10.8113 20.7913 9.11825 19.0898 7.02251 19.0898V25.0898ZM4.81125 22.8797V23.8141H10.8113V22.8797H4.81125ZM4.81125 23.8137C4.81139 22.5968 5.79634 21.6039 7.02251 21.6039V27.6039C9.11839 27.6039 10.811 25.9024 10.8113 23.8144L4.81125 23.8137ZM6.08945 19.1398C4.02108 19.1398 2.35062 20.819 2.35062 22.8797H8.35062C8.35062 24.1245 7.343 25.1398 6.08945 25.1398V19.1398ZM2.35062 22.8797V23.8141H8.35062V22.8797H2.35062ZM2.35062 23.8141C2.35062 25.8747 4.02108 27.5539 6.08945 27.5539V21.5539C7.343 21.5539 8.35062 22.5693 8.35062 23.8141H2.35062ZM6.08945 27.5539H7.02251V21.5539H6.08945V27.5539ZM7.02251 27.5539C9.09087 27.5539 10.7613 25.8747 10.7613 23.8141H4.76133C4.76133 22.5693 5.76894 21.5539 7.02251 21.5539V27.5539ZM10.7613 23.8141V22.8797H4.76133V23.8141H10.7613ZM10.7613 22.8797C10.7613 20.819 9.09087 19.1398 7.02251 19.1398V25.1398C5.76894 25.1398 4.76133 24.1245 4.76133 22.8797H10.7613ZM7.02251 19.1398H6.08945V25.1398H7.02251V19.1398Z" fill="#FF5E29" mask="url(#path-11-inside-6_415_5)"/>
<mask id="path-13-inside-7_415_5" fill="white">
<path d="M22.7052 26.7206H23.6382C25.2385 26.7206 26.5405 25.4168 26.5405 23.8141V22.8797C26.5405 21.2771 25.2385 19.9733 23.6382 19.9733H22.7052C21.1048 19.9733 19.8027 21.2771 19.8027 22.8797V23.8141C19.8027 25.4168 21.1048 26.7206 22.7052 26.7206ZM21.9413 22.8797C21.9413 22.458 22.2839 22.1149 22.7052 22.1149H23.6382C24.0594 22.1149 24.402 22.458 24.402 22.8797V23.8141C24.402 24.2359 24.0594 24.579 23.6382 24.579H22.7052C22.2839 24.579 21.9413 24.2359 21.9413 23.8141V22.8797Z"/>
</mask>
<path d="M22.7052 26.7206H23.6382C25.2385 26.7206 26.5405 25.4168 26.5405 23.8141V22.8797C26.5405 21.2771 25.2385 19.9733 23.6382 19.9733H22.7052C21.1048 19.9733 19.8027 21.2771 19.8027 22.8797V23.8141C19.8027 25.4168 21.1048 26.7206 22.7052 26.7206ZM21.9413 22.8797C21.9413 22.458 22.2839 22.1149 22.7052 22.1149H23.6382C24.0594 22.1149 24.402 22.458 24.402 22.8797V23.8141C24.402 24.2359 24.0594 24.579 23.6382 24.579H22.7052C22.2839 24.579 21.9413 24.2359 21.9413 23.8141V22.8797Z" fill="#FF5E29"/>
<path d="M19.8027 23.8141L16.8027 23.8141L19.8027 23.8141ZM22.7052 29.7206H23.6382V23.7206H22.7052V29.7206ZM23.6382 29.7206C26.8994 29.7206 29.5405 27.0696 29.5405 23.8141H23.5405C23.5405 23.8052 23.5429 23.7903 23.5492 23.7754C23.5547 23.7626 23.5611 23.7541 23.5667 23.7485C23.5723 23.7429 23.5812 23.736 23.5951 23.7301C23.611 23.7233 23.6275 23.7206 23.6382 23.7206V29.7206ZM29.5405 23.8141V22.8797H23.5405V23.8141H29.5405ZM29.5405 22.8797C29.5405 19.6243 26.8994 16.9733 23.6382 16.9733V22.9733C23.6275 22.9733 23.611 22.9705 23.5951 22.9637C23.5811 22.9578 23.5723 22.951 23.5667 22.9453C23.5611 22.9397 23.5547 22.9313 23.5492 22.9185C23.5429 22.9036 23.5405 22.8886 23.5405 22.8797H29.5405ZM23.6382 16.9733H22.7052V22.9733H23.6382V16.9733ZM22.7052 16.9733C19.444 16.9733 16.8027 19.6242 16.8027 22.8797H22.8027C22.8027 22.8886 22.8004 22.9036 22.7941 22.9185C22.7886 22.9313 22.7822 22.9397 22.7766 22.9454C22.771 22.951 22.7621 22.9578 22.7482 22.9637C22.7323 22.9705 22.7158 22.9733 22.7052 22.9733V16.9733ZM16.8027 22.8797V23.8141H22.8027V22.8797H16.8027ZM16.8027 23.8141C16.8027 27.0697 19.444 29.7206 22.7052 29.7206V23.7206C22.7158 23.7206 22.7323 23.7233 22.7482 23.7301C22.7621 23.736 22.771 23.7429 22.7766 23.7485C22.7822 23.7541 22.7886 23.7625 22.7941 23.7754C22.8004 23.7903 22.8027 23.8052 22.8027 23.8141L16.8027 23.8141ZM24.9413 22.8797C24.9413 24.1109 23.9448 25.1149 22.7052 25.1149V19.1149C20.6231 19.1149 18.9413 20.8051 18.9413 22.8797H24.9413ZM22.7052 25.1149H23.6382V19.1149H22.7052V25.1149ZM23.6382 25.1149C22.3983 25.1149 21.402 24.1106 21.402 22.8797H27.402C27.402 20.8054 25.7204 19.1149 23.6382 19.1149V25.1149ZM21.402 22.8797V23.8141H27.402V22.8797H21.402ZM21.402 23.8141C21.402 22.5831 22.3984 21.579 23.6382 21.579V27.579C25.7203 27.579 27.402 25.8886 27.402 23.8141H21.402ZM23.6382 21.579H22.7052V27.579H23.6382V21.579ZM22.7052 21.579C23.9446 21.579 24.9413 22.5829 24.9413 23.8141H18.9413C18.9413 25.8889 20.6232 27.579 22.7052 27.579V21.579ZM24.9413 23.8141V22.8797H18.9413V23.8141H24.9413Z" fill="#FF5E29" mask="url(#path-13-inside-7_415_5)"/>
<mask id="path-15-inside-8_415_5" fill="white">
<path d="M23.6388 26.7455H22.7057C21.0915 26.7455 19.7783 25.4305 19.7783 23.8141V22.8797C19.7783 21.2633 21.0915 19.9482 22.7057 19.9482H23.6388C25.2528 19.9482 26.5661 21.2633 26.5661 22.8797V23.8141C26.5661 25.4305 25.2528 26.7455 23.6388 26.7455ZM22.7057 19.9982C21.1191 19.9982 19.8282 21.2908 19.8282 22.8797V23.8141C19.8282 25.4029 21.119 26.6955 22.7057 26.6955H23.6388C25.2253 26.6955 26.5161 25.4029 26.5161 23.8141V22.8797C26.5161 21.2909 25.2254 19.9982 23.6388 19.9982H22.7057ZM23.6388 24.6039H22.7057C22.2708 24.6039 21.9169 24.2496 21.9169 23.8141V22.8797C21.9169 22.4442 22.2708 22.0898 22.7057 22.0898H23.6388C24.0737 22.0898 24.4275 22.4442 24.4275 22.8797V23.8141C24.4275 24.2496 24.0737 24.6039 23.6388 24.6039ZM22.7057 22.1398C22.2983 22.1398 21.9668 22.4718 21.9668 22.8797V23.8141C21.9668 24.222 22.2983 24.5539 22.7057 24.5539H23.6388C24.0461 24.5539 24.3775 24.222 24.3775 23.8141V22.8797C24.3775 22.4718 24.0461 22.1398 23.6388 22.1398H22.7057Z"/>
</mask>
<path d="M23.6388 26.7455H22.7057C21.0915 26.7455 19.7783 25.4305 19.7783 23.8141V22.8797C19.7783 21.2633 21.0915 19.9482 22.7057 19.9482H23.6388C25.2528 19.9482 26.5661 21.2633 26.5661 22.8797V23.8141C26.5661 25.4305 25.2528 26.7455 23.6388 26.7455ZM22.7057 19.9982C21.1191 19.9982 19.8282 21.2908 19.8282 22.8797V23.8141C19.8282 25.4029 21.119 26.6955 22.7057 26.6955H23.6388C25.2253 26.6955 26.5161 25.4029 26.5161 23.8141V22.8797C26.5161 21.2909 25.2254 19.9982 23.6388 19.9982H22.7057ZM23.6388 24.6039H22.7057C22.2708 24.6039 21.9169 24.2496 21.9169 23.8141V22.8797C21.9169 22.4442 22.2708 22.0898 22.7057 22.0898H23.6388C24.0737 22.0898 24.4275 22.4442 24.4275 22.8797V23.8141C24.4275 24.2496 24.0737 24.6039 23.6388 24.6039ZM22.7057 22.1398C22.2983 22.1398 21.9668 22.4718 21.9668 22.8797V23.8141C21.9668 24.222 22.2983 24.5539 22.7057 24.5539H23.6388C24.0461 24.5539 24.3775 24.222 24.3775 23.8141V22.8797C24.3775 22.4718 24.0461 22.1398 23.6388 22.1398H22.7057Z" fill="#FF5E29"/>
<path d="M26.5661 23.8141L23.5661 23.8141L26.5661 23.8141ZM24.4275 23.8141L21.4275 23.8141L24.4275 23.8141ZM23.6388 23.7455H22.7057V29.7455H23.6388V23.7455ZM22.7057 23.7455C22.7129 23.7455 22.7261 23.7476 22.7391 23.7531C22.75 23.7577 22.7561 23.7628 22.7595 23.7661C22.7629 23.7695 22.7674 23.7752 22.7716 23.7851C22.7766 23.797 22.7783 23.8086 22.7783 23.8141H16.7783C16.7783 27.0834 19.4307 29.7455 22.7057 29.7455V23.7455ZM22.7783 23.8141V22.8797H16.7783V23.8141H22.7783ZM22.7783 22.8797C22.7783 22.8851 22.7766 22.8968 22.7716 22.9087C22.7674 22.9186 22.7629 22.9243 22.7595 22.9277C22.7561 22.931 22.75 22.9361 22.7391 22.9407C22.7261 22.9462 22.7129 22.9482 22.7057 22.9482V16.9482C19.4307 16.9482 16.7783 19.6104 16.7783 22.8797H22.7783ZM22.7057 22.9482H23.6388V16.9482H22.7057V22.9482ZM23.6388 22.9482C23.6315 22.9482 23.6183 22.9462 23.6053 22.9407C23.5944 22.936 23.5882 22.931 23.5849 22.9276C23.5815 22.9243 23.5769 22.9186 23.5728 22.9087C23.5677 22.8968 23.5661 22.8851 23.5661 22.8797H29.5661C29.5661 19.6105 26.9137 16.9482 23.6388 16.9482V22.9482ZM23.5661 22.8797V23.8141H29.5661V22.8797H23.5661ZM23.5661 23.8141C23.5661 23.8086 23.5677 23.797 23.5728 23.7851C23.5769 23.7752 23.5815 23.7695 23.5849 23.7661C23.5882 23.7628 23.5944 23.7577 23.6053 23.7531C23.6183 23.7476 23.6315 23.7455 23.6388 23.7455V29.7455C26.9137 29.7455 29.5661 27.0833 29.5661 23.8141L23.5661 23.8141ZM22.7057 16.9982C19.4583 16.9982 16.8282 19.6379 16.8282 22.8797H22.8282C22.8282 22.892 22.8252 22.9103 22.8176 22.9282C22.8109 22.944 22.8027 22.9551 22.7948 22.963C22.7869 22.9709 22.7754 22.9796 22.7585 22.9867C22.7395 22.9948 22.7198 22.9982 22.7057 22.9982V16.9982ZM16.8282 22.8797V23.8141H22.8282V22.8797H16.8282ZM16.8282 23.8141C16.8282 27.0558 19.4582 29.6955 22.7057 29.6955V23.6955C22.7198 23.6955 22.7395 23.699 22.7585 23.707C22.7754 23.7142 22.7869 23.7229 22.7948 23.7308C22.8027 23.7387 22.8109 23.7498 22.8176 23.7656C22.8252 23.7835 22.8282 23.8017 22.8282 23.8141H16.8282ZM22.7057 29.6955H23.6388V23.6955H22.7057V29.6955ZM23.6388 29.6955C26.8862 29.6955 29.5161 27.0558 29.5161 23.8141H23.5161C23.5161 23.8018 23.5192 23.7835 23.5268 23.7657C23.5335 23.7498 23.5417 23.7387 23.5496 23.7308C23.5575 23.7229 23.569 23.7142 23.5859 23.7071C23.6049 23.699 23.6247 23.6955 23.6388 23.6955V29.6955ZM29.5161 23.8141V22.8797H23.5161V23.8141H29.5161ZM29.5161 22.8797C29.5161 19.6381 26.8863 16.9982 23.6388 16.9982V22.9982C23.6247 22.9982 23.6049 22.9948 23.5859 22.9867C23.569 22.9796 23.5575 22.9708 23.5496 22.963C23.5417 22.9551 23.5335 22.9439 23.5268 22.9281C23.5192 22.9103 23.5161 22.892 23.5161 22.8797H29.5161ZM23.6388 16.9982H22.7057V22.9982H23.6388V16.9982ZM23.6388 21.6039H22.7057V27.6039H23.6388V21.6039ZM22.7057 21.6039C23.9315 21.6039 24.9169 22.5966 24.9169 23.8141H18.9169C18.9169 25.9026 20.6101 27.6039 22.7057 27.6039V21.6039ZM24.9169 23.8141V22.8797H18.9169V23.8141H24.9169ZM24.9169 22.8797C24.9169 24.0972 23.9315 25.0898 22.7057 25.0898V19.0898C20.6101 19.0898 18.9169 20.7912 18.9169 22.8797H24.9169ZM22.7057 25.0898H23.6388V19.0898H22.7057V25.0898ZM23.6388 25.0898C22.4126 25.0898 21.4275 24.0968 21.4275 22.8797H27.4275C27.4275 20.7915 25.7348 19.0898 23.6388 19.0898V25.0898ZM21.4275 22.8797V23.8141H27.4275V22.8797H21.4275ZM21.4275 23.8141C21.4275 22.597 22.4126 21.6039 23.6388 21.6039V27.6039C25.7348 27.6039 27.4275 25.9022 27.4275 23.8141L21.4275 23.8141ZM22.7057 19.1398C20.6376 19.1398 18.9668 20.8188 18.9668 22.8797H24.9668C24.9668 24.1248 23.959 25.1398 22.7057 25.1398V19.1398ZM18.9668 22.8797V23.8141H24.9668V22.8797H18.9668ZM18.9668 23.8141C18.9668 25.875 20.6376 27.5539 22.7057 27.5539V21.5539C23.959 21.5539 24.9668 22.569 24.9668 23.8141H18.9668ZM22.7057 27.5539H23.6388V21.5539H22.7057V27.5539ZM23.6388 27.5539C25.7072 27.5539 27.3775 25.8746 27.3775 23.8141H21.3775C21.3775 22.5694 22.385 21.5539 23.6388 21.5539V27.5539ZM27.3775 23.8141V22.8797H21.3775V23.8141H27.3775ZM27.3775 22.8797C27.3775 20.8192 25.7072 19.1398 23.6388 19.1398V25.1398C22.385 25.1398 21.3775 24.1244 21.3775 22.8797H27.3775ZM23.6388 19.1398H22.7057V25.1398H23.6388V19.1398Z" fill="#FF5E29" mask="url(#path-15-inside-8_415_5)"/>
<mask id="path-17-inside-9_415_5" fill="white">
<path d="M14.419 18.3837H15.352C16.9524 18.3837 18.2545 17.0798 18.2545 15.4772V14.5428C18.2545 12.9402 16.9524 11.6364 15.352 11.6364H14.419C12.8186 11.6364 11.5166 12.9402 11.5166 14.5428V15.4772C11.5166 17.0798 12.8186 18.3837 14.419 18.3837ZM13.6552 14.5428C13.6552 14.121 13.9978 13.778 14.419 13.778H15.352C15.7733 13.778 16.1159 14.121 16.1159 14.5428V15.4772C16.1159 15.899 15.7733 16.2421 15.352 16.2421H14.419C13.9978 16.2421 13.6552 15.899 13.6552 15.4772V14.5428Z"/>
</mask>
<path d="M14.419 18.3837H15.352C16.9524 18.3837 18.2545 17.0798 18.2545 15.4772V14.5428C18.2545 12.9402 16.9524 11.6364 15.352 11.6364H14.419C12.8186 11.6364 11.5166 12.9402 11.5166 14.5428V15.4772C11.5166 17.0798 12.8186 18.3837 14.419 18.3837ZM13.6552 14.5428C13.6552 14.121 13.9978 13.778 14.419 13.778H15.352C15.7733 13.778 16.1159 14.121 16.1159 14.5428V15.4772C16.1159 15.899 15.7733 16.2421 15.352 16.2421H14.419C13.9978 16.2421 13.6552 15.899 13.6552 15.4772V14.5428Z" fill="#FF5E29"/>
<path d="M14.419 21.3837H15.352V15.3837H14.419V21.3837ZM15.352 21.3837C18.6132 21.3837 21.2545 18.7327 21.2545 15.4772H15.2545C15.2545 15.4683 15.2568 15.4533 15.2631 15.4384C15.2686 15.4256 15.275 15.4172 15.2806 15.4116C15.2862 15.4059 15.2951 15.3991 15.309 15.3932C15.3249 15.3864 15.3414 15.3837 15.352 15.3837V21.3837ZM21.2545 15.4772V14.5428H15.2545V15.4772H21.2545ZM21.2545 14.5428C21.2545 11.2872 18.6132 8.63635 15.352 8.63635V14.6364C15.3414 14.6364 15.3249 14.6336 15.309 14.6268C15.2951 14.6209 15.2862 14.6141 15.2806 14.6084C15.275 14.6028 15.2686 14.5944 15.2631 14.5815C15.2568 14.5667 15.2545 14.5517 15.2545 14.5428H21.2545ZM15.352 8.63635H14.419V14.6364H15.352V8.63635ZM14.419 8.63635C11.1578 8.63635 8.5166 11.2873 8.5166 14.5428H14.5166C14.5166 14.5517 14.5142 14.5667 14.5079 14.5816C14.5025 14.5944 14.4961 14.6028 14.4905 14.6084C14.4849 14.6141 14.476 14.6209 14.4621 14.6268C14.4461 14.6336 14.4296 14.6364 14.419 14.6364V8.63635ZM8.5166 14.5428V15.4772H14.5166V14.5428H8.5166ZM8.5166 15.4772C8.5166 18.7326 11.1577 21.3837 14.419 21.3837V15.3837C14.4296 15.3837 14.4461 15.3864 14.4621 15.3932C14.476 15.3991 14.4848 15.406 14.4905 15.4116C14.4961 15.4172 14.5025 15.4256 14.5079 15.4385C14.5142 15.4534 14.5166 15.4683 14.5166 15.4772H8.5166ZM16.6552 14.5428C16.6552 15.774 15.6586 16.778 14.419 16.778V10.778C12.3371 10.778 10.6552 12.4681 10.6552 14.5428H16.6552ZM14.419 16.778H15.352V10.778H14.419V16.778ZM15.352 16.778C14.1126 16.778 13.1159 15.774 13.1159 14.5428H19.1159C19.1159 12.468 17.434 10.778 15.352 10.778V16.778ZM13.1159 14.5428V15.4772H19.1159V14.5428H13.1159ZM13.1159 15.4772C13.1159 14.246 14.1126 13.2421 15.352 13.2421V19.2421C17.434 19.2421 19.1159 17.552 19.1159 15.4772H13.1159ZM15.352 13.2421H14.419V19.2421H15.352V13.2421ZM14.419 13.2421C15.6586 13.2421 16.6552 14.246 16.6552 15.4772H10.6552C10.6552 17.552 12.3371 19.2421 14.419 19.2421V13.2421ZM16.6552 15.4772V14.5428H10.6552V15.4772H16.6552Z" fill="#FF5E29" mask="url(#path-17-inside-9_415_5)"/>
<mask id="path-19-inside-10_415_5" fill="white">
<path d="M15.3526 18.4086H14.4195C12.8054 18.4086 11.4922 17.0936 11.4922 15.4772V14.5428C11.4922 12.9264 12.8054 11.6113 14.4195 11.6113H15.3526C16.9668 11.6113 18.28 12.9264 18.28 14.5428V15.4772C18.28 17.0936 16.9668 18.4086 15.3526 18.4086ZM14.4196 11.6613C12.833 11.6613 11.5422 12.9539 11.5422 14.5428V15.4772C11.5422 17.066 12.833 18.3586 14.4196 18.3586H15.3526C16.9393 18.3586 18.2301 17.066 18.2301 15.4772V14.5428C18.2301 12.9539 16.9393 11.6613 15.3526 11.6613H14.4196ZM15.3526 16.267H14.4195C13.9846 16.267 13.6308 15.9127 13.6308 15.4772V14.5428C13.6308 14.1073 13.9846 13.7529 14.4195 13.7529H15.3526C15.7875 13.7529 16.1414 14.1073 16.1414 14.5428V15.4772C16.1414 15.9127 15.7875 16.267 15.3526 16.267ZM14.4196 13.8029C14.0122 13.8029 13.6808 14.1348 13.6808 14.5428V15.4772C13.6808 15.8851 14.0122 16.217 14.4196 16.217H15.3526C15.76 16.217 16.0915 15.8851 16.0915 15.4772V14.5428C16.0915 14.1348 15.76 13.8029 15.3526 13.8029H14.4196Z"/>
</mask>
<path d="M15.3526 18.4086H14.4195C12.8054 18.4086 11.4922 17.0936 11.4922 15.4772V14.5428C11.4922 12.9264 12.8054 11.6113 14.4195 11.6113H15.3526C16.9668 11.6113 18.28 12.9264 18.28 14.5428V15.4772C18.28 17.0936 16.9668 18.4086 15.3526 18.4086ZM14.4196 11.6613C12.833 11.6613 11.5422 12.9539 11.5422 14.5428V15.4772C11.5422 17.066 12.833 18.3586 14.4196 18.3586H15.3526C16.9393 18.3586 18.2301 17.066 18.2301 15.4772V14.5428C18.2301 12.9539 16.9393 11.6613 15.3526 11.6613H14.4196ZM15.3526 16.267H14.4195C13.9846 16.267 13.6308 15.9127 13.6308 15.4772V14.5428C13.6308 14.1073 13.9846 13.7529 14.4195 13.7529H15.3526C15.7875 13.7529 16.1414 14.1073 16.1414 14.5428V15.4772C16.1414 15.9127 15.7875 16.267 15.3526 16.267ZM14.4196 13.8029C14.0122 13.8029 13.6808 14.1348 13.6808 14.5428V15.4772C13.6808 15.8851 14.0122 16.217 14.4196 16.217H15.3526C15.76 16.217 16.0915 15.8851 16.0915 15.4772V14.5428C16.0915 14.1348 15.76 13.8029 15.3526 13.8029H14.4196Z" fill="#FF5E29"/>
<path d="M15.3526 15.4086H14.4195V21.4086H15.3526V15.4086ZM14.4195 15.4086C14.4267 15.4086 14.4399 15.4107 14.4529 15.4162C14.4638 15.4208 14.47 15.4259 14.4734 15.4292C14.4767 15.4326 14.4813 15.4383 14.4855 15.4482C14.4905 15.46 14.4922 15.4717 14.4922 15.4772H8.49219C8.49219 18.7464 11.1446 21.4086 14.4195 21.4086V15.4086ZM14.4922 15.4772V14.5428H8.49219V15.4772H14.4922ZM14.4922 14.5428C14.4922 14.5482 14.4905 14.5599 14.4855 14.5718C14.4813 14.5816 14.4767 14.5874 14.4734 14.5907C14.47 14.5941 14.4638 14.5991 14.4529 14.6038C14.4399 14.6093 14.4267 14.6113 14.4195 14.6113V8.61133C11.1446 8.61133 8.49219 11.2735 8.49219 14.5428H14.4922ZM14.4195 14.6113H15.3526V8.61133H14.4195V14.6113ZM15.3526 14.6113C15.3454 14.6113 15.3322 14.6093 15.3192 14.6038C15.3083 14.5991 15.3022 14.5941 15.2988 14.5907C15.2954 14.5874 15.2909 14.5817 15.2867 14.5718C15.2817 14.5599 15.28 14.5482 15.28 14.5428H21.28C21.28 11.2735 18.6276 8.61133 15.3526 8.61133V14.6113ZM15.28 14.5428V15.4772H21.28V14.5428H15.28ZM15.28 15.4772C15.28 15.4718 15.2816 15.4601 15.2867 15.4482C15.2909 15.4383 15.2954 15.4326 15.2988 15.4292C15.3022 15.4258 15.3083 15.4208 15.3193 15.4162C15.3322 15.4107 15.3454 15.4086 15.3526 15.4086V21.4086C18.6275 21.4086 21.28 18.7466 21.28 15.4772H15.28ZM14.4196 8.66132C11.1721 8.66132 8.54216 11.3011 8.54216 14.5428H14.5422C14.5422 14.5551 14.5391 14.5733 14.5315 14.5912C14.5248 14.607 14.5166 14.6182 14.5087 14.6261C14.5008 14.634 14.4893 14.6427 14.4724 14.6498C14.4534 14.6579 14.4337 14.6613 14.4196 14.6613V8.66132ZM8.54216 14.5428V15.4772H14.5422V14.5428H8.54216ZM8.54216 15.4772C8.54216 18.7188 11.1721 21.3586 14.4196 21.3586V15.3586C14.4337 15.3586 14.4534 15.3621 14.4724 15.3701C14.4893 15.3773 14.5008 15.386 14.5087 15.3939C14.5166 15.4018 14.5248 15.4129 14.5315 15.4287C14.5391 15.4466 14.5422 15.4648 14.5422 15.4772H8.54216ZM14.4196 21.3586H15.3526V15.3586H14.4196V21.3586ZM15.3526 21.3586C18.6 21.3586 21.2301 18.719 21.2301 15.4772H15.2301C15.2301 15.4648 15.2332 15.4466 15.2407 15.4287C15.2474 15.4129 15.2557 15.4018 15.2636 15.3939C15.2714 15.386 15.283 15.3773 15.2999 15.3701C15.3188 15.3621 15.3386 15.3586 15.3526 15.3586V21.3586ZM21.2301 15.4772V14.5428H15.2301V15.4772H21.2301ZM21.2301 14.5428C21.2301 11.301 18.6001 8.66132 15.3526 8.66132V14.6613C15.3386 14.6613 15.3188 14.6579 15.2999 14.6498C15.283 14.6427 15.2715 14.634 15.2636 14.6261C15.2557 14.6182 15.2474 14.6071 15.2407 14.5912C15.2332 14.5733 15.2301 14.5551 15.2301 14.5428H21.2301ZM15.3526 8.66132H14.4196V14.6613H15.3526V8.66132ZM15.3526 13.267H14.4195V19.267H15.3526V13.267ZM14.4195 13.267C15.6455 13.267 16.6308 14.2598 16.6308 15.4772H10.6308C10.6308 17.5655 12.3238 19.267 14.4195 19.267V13.267ZM16.6308 15.4772V14.5428H10.6308V15.4772H16.6308ZM16.6308 14.5428C16.6308 15.7601 15.6455 16.7529 14.4195 16.7529V10.7529C12.3238 10.7529 10.6308 12.4544 10.6308 14.5428H16.6308ZM14.4195 16.7529H15.3526V10.7529H14.4195V16.7529ZM15.3526 16.7529C14.1268 16.7529 13.1414 15.7603 13.1414 14.5428H19.1414C19.1414 12.4543 17.4483 10.7529 15.3526 10.7529V16.7529ZM13.1414 14.5428V15.4772H19.1414V14.5428H13.1414ZM13.1414 15.4772C13.1414 14.2597 14.1268 13.267 15.3526 13.267V19.267C17.4483 19.267 19.1414 17.5657 19.1414 15.4772H13.1414ZM14.4196 10.8029C12.3513 10.8029 10.6808 12.4819 10.6808 14.5428H16.6808C16.6808 15.7877 15.673 16.8029 14.4196 16.8029V10.8029ZM10.6808 14.5428V15.4772H16.6808V14.5428H10.6808ZM10.6808 15.4772C10.6808 17.5378 12.3512 19.217 14.4196 19.217V13.217C15.6731 13.217 16.6808 14.2324 16.6808 15.4772H10.6808ZM14.4196 19.217H15.3526V13.217H14.4196V19.217ZM15.3526 19.217C17.4207 19.217 19.0915 17.5381 19.0915 15.4772H13.0915C13.0915 14.2321 14.0993 13.217 15.3526 13.217V19.217ZM19.0915 15.4772V14.5428H13.0915V15.4772H19.0915ZM19.0915 14.5428C19.0915 12.4817 17.4206 10.8029 15.3526 10.8029V16.8029C14.0995 16.8029 13.0915 15.7879 13.0915 14.5428H19.0915ZM15.3526 10.8029H14.4196V16.8029H15.3526V10.8029Z" fill="#FF5E29" mask="url(#path-19-inside-10_415_5)"/>
<mask id="path-21-inside-11_415_5" fill="white">
<path d="M22.7052 18.3837H23.6382C25.2385 18.3837 26.5405 17.0798 26.5405 15.4772V14.5428C26.5405 12.9402 25.2385 11.6364 23.6382 11.6364H22.7052C21.1048 11.6364 19.8027 12.9402 19.8027 14.5428V15.4772C19.8027 17.0798 21.1048 18.3837 22.7052 18.3837ZM21.9413 14.5428C21.9413 14.121 22.2839 13.778 22.7052 13.778H23.6382C24.0594 13.778 24.402 14.121 24.402 14.5428V15.4772C24.402 15.899 24.0594 16.2421 23.6382 16.2421H22.7052C22.2839 16.2421 21.9413 15.899 21.9413 15.4772V14.5428Z"/>
</mask>
<path d="M22.7052 18.3837H23.6382C25.2385 18.3837 26.5405 17.0798 26.5405 15.4772V14.5428C26.5405 12.9402 25.2385 11.6364 23.6382 11.6364H22.7052C21.1048 11.6364 19.8027 12.9402 19.8027 14.5428V15.4772C19.8027 17.0798 21.1048 18.3837 22.7052 18.3837ZM21.9413 14.5428C21.9413 14.121 22.2839 13.778 22.7052 13.778H23.6382C24.0594 13.778 24.402 14.121 24.402 14.5428V15.4772C24.402 15.899 24.0594 16.2421 23.6382 16.2421H22.7052C22.2839 16.2421 21.9413 15.899 21.9413 15.4772V14.5428Z" fill="#FF5E29"/>
<path d="M19.8027 15.4772L16.8027 15.4772L19.8027 15.4772ZM22.7052 21.3837H23.6382V15.3837H22.7052V21.3837ZM23.6382 21.3837C26.8994 21.3837 29.5405 18.7326 29.5405 15.4772H23.5405C23.5405 15.4683 23.5429 15.4533 23.5492 15.4385C23.5547 15.4256 23.5611 15.4172 23.5667 15.4116C23.5723 15.406 23.5811 15.3991 23.5951 15.3932C23.611 15.3864 23.6275 15.3837 23.6382 15.3837V21.3837ZM29.5405 15.4772V14.5428H23.5405V15.4772H29.5405ZM29.5405 14.5428C29.5405 11.2873 26.8994 8.63635 23.6382 8.63635V14.6364C23.6275 14.6364 23.611 14.6336 23.5951 14.6268C23.5812 14.6209 23.5723 14.614 23.5667 14.6084C23.5611 14.6028 23.5547 14.5944 23.5492 14.5815C23.5429 14.5666 23.5405 14.5517 23.5405 14.5428H29.5405ZM23.6382 8.63635H22.7052V14.6364H23.6382V8.63635ZM22.7052 8.63635C19.444 8.63635 16.8027 11.2873 16.8027 14.5428H22.8027C22.8027 14.5517 22.8004 14.5667 22.7941 14.5816C22.7886 14.5944 22.7822 14.6028 22.7766 14.6084C22.771 14.6141 22.7621 14.6209 22.7482 14.6268C22.7323 14.6336 22.7158 14.6364 22.7052 14.6364V8.63635ZM16.8027 14.5428V15.4772H22.8027V14.5428H16.8027ZM16.8027 15.4772C16.8027 18.7327 19.444 21.3837 22.7052 21.3837V15.3837C22.7158 15.3837 22.7323 15.3864 22.7482 15.3932C22.7621 15.3991 22.771 15.4059 22.7766 15.4116C22.7822 15.4172 22.7886 15.4256 22.7941 15.4384C22.8004 15.4533 22.8027 15.4683 22.8027 15.4772L16.8027 15.4772ZM24.9413 14.5428C24.9413 15.774 23.9446 16.778 22.7052 16.778V10.778C20.6232 10.778 18.9413 12.468 18.9413 14.5428H24.9413ZM22.7052 16.778H23.6382V10.778H22.7052V16.778ZM23.6382 16.778C22.3984 16.778 21.402 15.7738 21.402 14.5428H27.402C27.402 12.4683 25.7203 10.778 23.6382 10.778V16.778ZM21.402 14.5428V15.4772H27.402V14.5428H21.402ZM21.402 15.4772C21.402 14.2462 22.3984 13.2421 23.6382 13.2421V19.2421C25.7203 19.2421 27.402 17.5517 27.402 15.4772H21.402ZM23.6382 13.2421H22.7052V19.2421H23.6382V13.2421ZM22.7052 13.2421C23.9446 13.2421 24.9413 14.246 24.9413 15.4772H18.9413C18.9413 17.552 20.6232 19.2421 22.7052 19.2421V13.2421ZM24.9413 15.4772V14.5428H18.9413V15.4772H24.9413Z" fill="#FF5E29" mask="url(#path-21-inside-11_415_5)"/>
<mask id="path-23-inside-12_415_5" fill="white">
<path d="M23.6388 18.4086H22.7057C21.0915 18.4086 19.7783 17.0936 19.7783 15.4772V14.5428C19.7783 12.9264 21.0915 11.6113 22.7057 11.6113H23.6388C25.2528 11.6113 26.5661 12.9264 26.5661 14.5428V15.4772C26.5661 17.0936 25.2528 18.4086 23.6388 18.4086ZM22.7057 11.6613C21.1191 11.6613 19.8282 12.9539 19.8282 14.5428V15.4772C19.8282 17.066 21.119 18.3586 22.7057 18.3586H23.6388C25.2253 18.3586 26.5161 17.066 26.5161 15.4772V14.5428C26.5161 12.9539 25.2254 11.6613 23.6388 11.6613H22.7057ZM23.6388 16.267H22.7057C22.2708 16.267 21.9169 15.9127 21.9169 15.4772V14.5428C21.9169 14.1073 22.2708 13.7529 22.7057 13.7529H23.6388C24.0737 13.7529 24.4275 14.1073 24.4275 14.5428V15.4772C24.4275 15.9127 24.0737 16.267 23.6388 16.267ZM22.7057 13.8029C22.2983 13.8029 21.9668 14.1348 21.9668 14.5428V15.4772C21.9668 15.8851 22.2983 16.217 22.7057 16.217H23.6388C24.0461 16.217 24.3775 15.8851 24.3775 15.4772V14.5428C24.3775 14.1348 24.0461 13.8029 23.6388 13.8029H22.7057Z"/>
</mask>
<path d="M23.6388 18.4086H22.7057C21.0915 18.4086 19.7783 17.0936 19.7783 15.4772V14.5428C19.7783 12.9264 21.0915 11.6113 22.7057 11.6113H23.6388C25.2528 11.6113 26.5661 12.9264 26.5661 14.5428V15.4772C26.5661 17.0936 25.2528 18.4086 23.6388 18.4086ZM22.7057 11.6613C21.1191 11.6613 19.8282 12.9539 19.8282 14.5428V15.4772C19.8282 17.066 21.119 18.3586 22.7057 18.3586H23.6388C25.2253 18.3586 26.5161 17.066 26.5161 15.4772V14.5428C26.5161 12.9539 25.2254 11.6613 23.6388 11.6613H22.7057ZM23.6388 16.267H22.7057C22.2708 16.267 21.9169 15.9127 21.9169 15.4772V14.5428C21.9169 14.1073 22.2708 13.7529 22.7057 13.7529H23.6388C24.0737 13.7529 24.4275 14.1073 24.4275 14.5428V15.4772C24.4275 15.9127 24.0737 16.267 23.6388 16.267ZM22.7057 13.8029C22.2983 13.8029 21.9668 14.1348 21.9668 14.5428V15.4772C21.9668 15.8851 22.2983 16.217 22.7057 16.217H23.6388C24.0461 16.217 24.3775 15.8851 24.3775 15.4772V14.5428C24.3775 14.1348 24.0461 13.8029 23.6388 13.8029H22.7057Z" fill="#FF5E29"/>
<path d="M26.5661 15.4772L23.5661 15.4772L26.5661 15.4772ZM24.4275 15.4772L21.4275 15.4772L24.4275 15.4772ZM23.6388 15.4086H22.7057V21.4086H23.6388V15.4086ZM22.7057 15.4086C22.7129 15.4086 22.7261 15.4107 22.7391 15.4162C22.75 15.4208 22.7561 15.4258 22.7595 15.4292C22.7629 15.4326 22.7674 15.4383 22.7716 15.4482C22.7766 15.46 22.7783 15.4717 22.7783 15.4772H16.7783C16.7783 18.7465 19.4307 21.4086 22.7057 21.4086V15.4086ZM22.7783 15.4772V14.5428H16.7783V15.4772H22.7783ZM22.7783 14.5428C22.7783 14.5482 22.7766 14.5599 22.7716 14.5718C22.7674 14.5817 22.7629 14.5874 22.7595 14.5907C22.7561 14.5941 22.75 14.5991 22.7391 14.6038C22.7261 14.6093 22.7129 14.6113 22.7057 14.6113V8.61133C19.4307 8.61133 16.7783 11.2735 16.7783 14.5428H22.7783ZM22.7057 14.6113H23.6388V8.61133H22.7057V14.6113ZM23.6388 14.6113C23.6315 14.6113 23.6183 14.6093 23.6053 14.6038C23.5944 14.5991 23.5882 14.5941 23.5849 14.5907C23.5815 14.5874 23.5769 14.5816 23.5728 14.5718C23.5677 14.5599 23.5661 14.5482 23.5661 14.5428H29.5661C29.5661 11.2735 26.9137 8.61133 23.6388 8.61133V14.6113ZM23.5661 14.5428V15.4772H29.5661V14.5428H23.5661ZM23.5661 15.4772C23.5661 15.4718 23.5677 15.4601 23.5728 15.4482C23.5769 15.4383 23.5815 15.4326 23.5849 15.4292C23.5882 15.4259 23.5944 15.4208 23.6053 15.4162C23.6183 15.4107 23.6315 15.4086 23.6388 15.4086V21.4086C26.9137 21.4086 29.5661 18.7465 29.5661 15.4772L23.5661 15.4772ZM22.7057 8.66132C19.4583 8.66132 16.8282 11.301 16.8282 14.5428H22.8282C22.8282 14.5551 22.8252 14.5734 22.8176 14.5912C22.8109 14.6071 22.8027 14.6182 22.7948 14.6261C22.7869 14.634 22.7754 14.6427 22.7585 14.6498C22.7395 14.6579 22.7198 14.6613 22.7057 14.6613V8.66132ZM16.8282 14.5428V15.4772H22.8282V14.5428H16.8282ZM16.8282 15.4772C16.8282 18.7188 19.4582 21.3586 22.7057 21.3586V15.3586C22.7198 15.3586 22.7395 15.3621 22.7585 15.3701C22.7754 15.3773 22.7869 15.386 22.7948 15.3939C22.8027 15.4018 22.8109 15.4129 22.8176 15.4287C22.8252 15.4466 22.8282 15.4648 22.8282 15.4772H16.8282ZM22.7057 21.3586H23.6388V15.3586H22.7057V21.3586ZM23.6388 21.3586C26.8862 21.3586 29.5161 18.7189 29.5161 15.4772H23.5161C23.5161 15.4649 23.5192 15.4466 23.5268 15.4287C23.5335 15.4129 23.5417 15.4018 23.5496 15.3939C23.5575 15.386 23.569 15.3773 23.5859 15.3701C23.6049 15.3621 23.6247 15.3586 23.6388 15.3586V21.3586ZM29.5161 15.4772V14.5428H23.5161V15.4772H29.5161ZM29.5161 14.5428C29.5161 11.3011 26.8863 8.66132 23.6388 8.66132V14.6613C23.6247 14.6613 23.6049 14.6579 23.586 14.6498C23.569 14.6426 23.5575 14.6339 23.5496 14.626C23.5417 14.6181 23.5335 14.607 23.5268 14.5912C23.5192 14.5733 23.5161 14.5551 23.5161 14.5428H29.5161ZM23.6388 8.66132H22.7057V14.6613H23.6388V8.66132ZM23.6388 13.267H22.7057V19.267H23.6388V13.267ZM22.7057 13.267C23.9315 13.267 24.9169 14.2597 24.9169 15.4772H18.9169C18.9169 17.5657 20.61 19.267 22.7057 19.267V13.267ZM24.9169 15.4772V14.5428H18.9169V15.4772H24.9169ZM24.9169 14.5428C24.9169 15.7603 23.9315 16.7529 22.7057 16.7529V10.7529C20.61 10.7529 18.9169 12.4543 18.9169 14.5428H24.9169ZM22.7057 16.7529H23.6388V10.7529H22.7057V16.7529ZM23.6388 16.7529C22.4126 16.7529 21.4275 15.7599 21.4275 14.5428H27.4275C27.4275 12.4546 25.7348 10.7529 23.6388 10.7529V16.7529ZM21.4275 14.5428V15.4772H27.4275V14.5428H21.4275ZM21.4275 15.4772C21.4275 14.2601 22.4126 13.267 23.6388 13.267V19.267C25.7348 19.267 27.4275 17.5653 27.4275 15.4772L21.4275 15.4772ZM22.7057 10.8029C20.6377 10.8029 18.9668 12.4817 18.9668 14.5428H24.9668C24.9668 15.788 23.9589 16.8029 22.7057 16.8029V10.8029ZM18.9668 14.5428V15.4772H24.9668V14.5428H18.9668ZM18.9668 15.4772C18.9668 17.5381 20.6376 19.217 22.7057 19.217V13.217C23.959 13.217 24.9668 14.2321 24.9668 15.4772H18.9668ZM22.7057 19.217H23.6388V13.217H22.7057V19.217ZM23.6388 19.217C25.7072 19.217 27.3775 17.5377 27.3775 15.4772H21.3775C21.3775 14.2325 22.385 13.217 23.6388 13.217V19.217ZM27.3775 15.4772V14.5428H21.3775V15.4772H27.3775ZM27.3775 14.5428C27.3775 12.4821 25.7071 10.8029 23.6388 10.8029V16.8029C22.3852 16.8029 21.3775 15.7876 21.3775 14.5428H27.3775ZM23.6388 10.8029H22.7057V16.8029H23.6388V10.8029Z" fill="#FF5E29" mask="url(#path-23-inside-12_415_5)"/>
</svg>
