<svg width="31" height="36" viewBox="0 0 31 36" fill="none" xmlns="http://www.w3.org/2000/svg">
<mask id="path-1-inside-1_307_132" fill="white">
<path d="M11.5754 34.3477L11.917 27.7044L16.4633 29.8356L11.5754 34.3477Z"/>
</mask>
<path d="M11.5754 34.3477L11.917 27.7044L16.4633 29.8356L11.5754 34.3477Z" fill="#D9D9D9"/>
<path d="M11.5754 34.3477L7.58069 34.1423L7.07668 43.9443L14.2886 37.2868L11.5754 34.3477ZM11.917 27.7044L13.6148 24.0826L8.2278 21.5573L7.92228 27.499L11.917 27.7044ZM16.4633 29.8356L19.1764 32.7748L23.5481 28.7392L18.1611 26.2138L16.4633 29.8356ZM15.5701 34.5531L15.9117 27.9098L7.92228 27.499L7.58069 34.1423L15.5701 34.5531ZM10.2192 31.3262L14.7654 33.4574L18.1611 26.2138L13.6148 24.0826L10.2192 31.3262ZM13.7501 26.8965L8.86223 31.4085L14.2886 37.2868L19.1764 32.7748L13.7501 26.8965Z" fill="#FF5E29" mask="url(#path-1-inside-1_307_132)"/>
<path d="M29.5 15.1458C29.5 22.6122 23.3036 28.5 15.5 28.5C7.69636 28.5 1.5 22.6122 1.5 15.1458C1.5 7.64192 7.73513 1.5 15.5 1.5C23.2649 1.5 29.5 7.64192 29.5 15.1458Z" stroke="#FF5E29" stroke-width="3"/>
<path d="M14.228 17.677V17.4586C14.228 16.8549 14.2777 16.3737 14.3771 16.0151C14.4801 15.6564 14.6293 15.3688 14.8246 15.1521C15.0199 14.932 15.2578 14.7313 15.5384 14.5502C15.7621 14.4082 15.9609 14.2644 16.1349 14.1188C16.3125 13.9696 16.4528 13.8098 16.5558 13.6394C16.6587 13.4689 16.7102 13.2754 16.7102 13.0587C16.7102 12.8492 16.6605 12.6646 16.5611 12.5048C16.4616 12.345 16.3249 12.2225 16.1509 12.1372C15.9805 12.0485 15.7905 12.0041 15.581 12.0041C15.3714 12.0041 15.1744 12.052 14.9897 12.1479C14.8086 12.2438 14.6594 12.3805 14.5423 12.558C14.4286 12.732 14.37 12.9433 14.3665 13.1919H11.9162C11.9268 12.4462 12.0991 11.8354 12.4329 11.3595C12.7702 10.8837 13.2159 10.5321 13.7699 10.3048C14.3239 10.074 14.9347 9.95861 15.6023 9.95861C16.3338 9.95861 16.9837 10.0722 17.5518 10.2995C18.1236 10.5268 18.5728 10.8624 18.8995 11.3063C19.2262 11.7502 19.3896 12.2935 19.3896 12.9362C19.3896 13.3588 19.3185 13.7317 19.1765 14.0548C19.0344 14.378 18.8356 14.6639 18.5799 14.9124C18.3278 15.1575 18.0313 15.3812 17.6903 15.5836C17.424 15.7399 17.2021 15.9032 17.0245 16.0737C16.8505 16.2441 16.7191 16.4394 16.6303 16.6596C16.5415 16.8762 16.4972 17.1426 16.4972 17.4586V17.677H14.228ZM15.4052 21.1713C15.0217 21.1713 14.6932 21.0364 14.4197 20.7665C14.1499 20.4966 14.0167 20.1699 14.0202 19.7864C14.0167 19.41 14.1499 19.0886 14.4197 18.8222C14.6932 18.5524 15.0217 18.4174 15.4052 18.4174C15.771 18.4174 16.0923 18.5524 16.3693 18.8222C16.6463 19.0886 16.7866 19.41 16.7901 19.7864C16.7866 20.0421 16.7191 20.2747 16.5877 20.4842C16.4599 20.6937 16.2912 20.8606 16.0817 20.9849C15.8757 21.1092 15.6502 21.1713 15.4052 21.1713Z" fill="#FF5E29"/>
</svg>
