<svg width="22" height="22" viewBox="0 0 22 22" fill="none" xmlns="http://www.w3.org/2000/svg">
<g clip-path="url(#clip0_246_20)">
<path d="M11 22C17.0652 22 22 17.0652 22 11C22 4.93482 17.0652 0 11 0C4.93482 0 0 4.93482 0 11C0 17.0652 4.93482 22 11 22ZM11.4333 1.15407C12.4863 1.15407 13.6225 3.10641 14.2188 6.24037H8.64886C9.24493 3.10641 10.3798 1.15407 11.4333 1.15407ZM14.3993 7.36859C14.5284 8.31169 14.6086 9.33966 14.6295 10.4359H8.23682C8.25772 9.33966 8.33815 8.31169 8.46652 7.36859H14.3993ZM20.8432 10.4359H15.7621C15.7412 9.40353 15.6635 8.36679 15.5316 7.36859H20.1711C20.552 8.32712 20.782 9.35839 20.8432 10.4359ZM11.4333 20.8459C10.3963 20.8459 9.27795 18.9522 8.67424 15.8982H14.1924C13.5891 18.9522 12.4706 20.8459 11.4333 20.8459ZM8.48577 14.7705C8.34528 13.7899 8.25881 12.7138 8.23682 11.5641H14.63C14.608 12.7138 14.5218 13.7894 14.3813 14.7705H8.48577ZM15.7621 11.5641H20.8432C20.7793 12.6928 20.5333 13.7737 20.1199 14.7705H15.5129C15.6566 13.7291 15.7406 12.6444 15.7621 11.5641ZM7.10417 10.4359H1.1569C1.21804 9.35839 1.44883 8.32712 1.82897 7.36859H7.33505C7.20338 8.36679 7.12511 9.40353 7.10417 10.4359ZM7.10417 11.5641C7.12625 12.6444 7.2105 13.7291 7.35373 14.7705H1.88021C1.46647 13.7737 1.22078 12.6928 1.1569 11.5641H7.10417ZM2.44094 15.8987H7.53498C7.90739 17.8833 8.5128 19.6183 9.33687 20.7211C6.38695 20.2168 3.88152 18.4049 2.44094 15.8987ZM13.6935 20.4887C14.4342 19.382 14.9837 17.7477 15.3305 15.8982H19.5591C18.2893 18.1077 16.1943 19.778 13.6935 20.4887ZM19.6431 6.24042H15.355C15.0101 4.33436 14.4524 2.64536 13.6935 1.51053C16.2471 2.23771 18.3829 3.96087 19.6431 6.24042ZM9.33744 1.27918C8.49464 2.40849 7.88092 4.19887 7.51186 6.24042H2.35673C3.78292 3.66059 6.33185 1.7926 9.33744 1.27918Z" fill="white"/>
</g>
<defs>
<clipPath id="clip0_246_20">
<rect width="22" height="22" fill="white" transform="matrix(-1 0 0 -1 22 22)"/>
</clipPath>
</defs>
</svg>
