<svg width="58" height="58" viewBox="0 0 58 58" fill="none" xmlns="http://www.w3.org/2000/svg">
<path d="M29.0002 0.666626C34.604 0.666626 40.0819 2.32835 44.7413 5.44165C49.4007 8.55496 53.0323 12.98 55.1767 18.1573C57.3212 23.3345 57.8823 29.0314 56.7891 34.5275C55.6958 40.0236 52.9973 45.0722 49.0348 49.0346C45.0724 52.9971 40.0238 55.6956 34.5277 56.7889C29.0316 57.8821 23.3347 57.321 18.1575 55.1765C12.9802 53.0321 8.55516 49.4005 5.44185 44.7411C2.32854 40.0817 0.666821 34.6038 0.666821 29C0.666821 25.2792 1.39968 21.5948 2.82356 18.1573C4.24745 14.7197 6.33447 11.5963 8.96546 8.96527C11.5965 6.33427 14.7199 4.24726 18.1575 2.82337C21.595 1.39949 25.2794 0.666626 29.0002 0.666626ZM29.0002 51.6666C33.1807 51.6657 37.2796 50.5086 40.8435 48.3233L30.7002 42.4583V29.7083L41.7218 23.3333V36.14L33.9301 40.645L43.7335 46.3116C46.5394 43.9436 48.728 40.9294 50.1111 37.5283C51.4943 34.1272 52.0305 30.441 51.6737 26.7868C51.317 23.1326 50.0778 19.6198 48.063 16.5505C46.0481 13.4811 43.3177 10.9472 40.1068 9.16663V20.5L29.0002 26.96L17.9501 20.5L29.0002 14.1816L36.8202 18.6866V7.66496C34.0281 6.61662 31.0566 6.12959 28.076 6.23178C25.0953 6.33396 22.1642 7.02336 19.4505 8.26045C16.7368 9.49754 14.2939 11.258 12.2618 13.441C10.2297 15.6239 8.6484 18.1864 7.60849 20.9816C6.65245 23.5468 6.16307 26.2624 6.16349 29V29.1983L16.3635 23.3333L27.4135 29.7366V42.515L16.3635 36.14V27.13L6.58849 32.7966C7.48702 38.0854 10.2322 42.884 14.3359 46.3392C18.4395 49.7943 23.6356 51.6821 29.0002 51.6666Z" fill="#D44D21"/>
</svg>
