<svg width="17" height="27" viewBox="0 0 17 27" fill="none" xmlns="http://www.w3.org/2000/svg">
<path d="M14.5714 13.5C15.2155 13.5 15.8332 13.7845 16.2887 14.2908C16.7441 14.7972 17 15.4839 17 16.2V24.3C17 25.0161 16.7441 25.7028 16.2887 26.2092C15.8332 26.7155 15.2155 27 14.5714 27H2.42857C1.78447 27 1.16676 26.7155 0.711312 26.2092C0.255867 25.7028 0 25.0161 0 24.3V16.2C0 15.4839 0.255867 14.7972 0.711312 14.2908C1.16676 13.7845 1.78447 13.5 2.42857 13.5V6.75C2.42857 4.95979 3.06824 3.2429 4.20685 1.97703C5.34547 0.711159 6.88976 0 8.5 0C10.1102 0 11.6545 0.711159 12.7931 1.97703C13.9318 3.2429 14.5714 4.95979 14.5714 6.75V13.5ZM8.5 22.95C9.1441 22.95 9.76181 22.6655 10.2173 22.1592C10.6727 21.6528 10.9286 20.9661 10.9286 20.25C10.9286 19.5339 10.6727 18.8472 10.2173 18.3408C9.76181 17.8345 9.1441 17.55 8.5 17.55C7.8559 17.55 7.23819 17.8345 6.78274 18.3408C6.32729 18.8472 6.07143 19.5339 6.07143 20.25C6.07143 20.9661 6.32729 21.6528 6.78274 22.1592C7.23819 22.6655 7.8559 22.95 8.5 22.95ZM12.1429 13.5V6.75C12.1429 6.21815 12.0486 5.6915 11.8656 5.20013C11.6825 4.70876 11.4142 4.26229 11.0759 3.88622C10.7376 3.51014 10.336 3.21182 9.89406 3.00829C9.45209 2.80476 8.97839 2.7 8.5 2.7C8.02161 2.7 7.54791 2.80476 7.10594 3.00829C6.66397 3.21182 6.26238 3.51014 5.92411 3.88622C5.58584 4.26229 5.31751 4.70876 5.13444 5.20013C4.95137 5.6915 4.85714 6.21815 4.85714 6.75V13.5H12.1429Z" fill="#FF5E29"/>
</svg>
