<svg width="55" height="33" viewBox="0 0 55 33" fill="none" xmlns="http://www.w3.org/2000/svg">
<path d="M12.7179 7.07257L12.9463 7.2697L26.665 20.1008C26.9016 20.0616 27.1401 20.0409 27.379 20.0389C29.6375 20.0383 31.6619 21.6979 32.4669 24.2099C33.2718 26.722 32.6901 29.5648 31.0048 31.3548C29.3195 33.1448 26.8806 33.5103 24.8752 32.2732C23.0035 31.1187 21.8722 28.7921 21.9385 26.3153L21.9712 25.7826L21.9678 25.778L11.3762 9.0945C10.1932 7.23093 11.2173 5.8866 12.7179 7.07257ZM52.6999 26.9211C53.9702 26.9211 55 28.1469 55 29.659C55 31.1711 53.9702 32.3969 52.6999 32.3969C51.4296 32.3969 50.3998 31.1711 50.3998 29.659C50.3998 28.1469 51.4296 26.9211 52.6999 26.9211ZM7.81433 10.6089L10.4635 14.9761C7.4027 19.2911 5.30893 24.4579 4.37719 29.9955C4.22791 30.9274 3.66828 31.6913 2.91294 31.9941C2.15759 32.2969 1.32378 32.0917 0.731267 31.4571C0.138756 30.8226 -0.120478 29.8571 0.0529832 28.9312C1.19669 22.0991 3.8795 15.7657 7.81433 10.6089ZM49.682 16.9789C50.9523 16.9789 51.9821 18.2047 51.9821 19.7168C51.9821 21.2289 50.9523 22.4547 49.682 22.4547C48.4117 22.4547 47.3819 21.2289 47.3819 19.7168C47.3819 18.2047 48.4117 16.9789 49.682 16.9789ZM44.2821 8.48305C45.5524 8.48305 46.5822 9.70885 46.5822 11.221C46.5822 12.7331 45.5524 13.9589 44.2821 13.9589C43.0118 13.9589 41.982 12.7331 41.982 11.221C41.982 9.70885 43.0118 8.48305 44.2821 8.48305ZM36.7854 2.47227C38.0557 2.47227 39.0855 3.69807 39.0855 5.21017C39.0855 6.72228 38.0557 7.94808 36.7854 7.94808C35.5151 7.94808 34.4853 6.72228 34.4853 5.21017C34.4853 3.69807 35.5151 2.47227 36.7854 2.47227ZM19.5234 1.80509C20.7937 1.80509 21.8235 3.0309 21.8235 4.543C21.8235 6.05511 20.7937 7.28091 19.5234 7.28091C18.2531 7.28091 17.2233 6.05511 17.2233 4.543C17.2233 3.0309 18.2531 1.80509 19.5234 1.80509ZM28.1949 0C29.4652 0 30.495 1.2258 30.495 2.73791C30.495 4.25001 29.4652 5.47582 28.1949 5.47582C26.9246 5.47582 25.8948 4.25001 25.8948 2.73791C25.8948 1.2258 26.9246 0 28.1949 0Z" fill="#FF5E29"/>
</svg>
