<svg width="48" height="48" viewBox="0 0 48 48" fill="none" xmlns="http://www.w3.org/2000/svg">
<g clip-path="url(#clip0_336_77)">
<path d="M25.8004 35.1999C26.4004 37.5999 28.6004 39.3999 31.2004 39.3999C34.4004 39.3999 36.8004 36.7999 36.8004 33.7999C36.8004 30.7999 34.2004 28.1999 31.2004 28.1999C28.6004 28.1999 26.4004 29.9999 25.8004 32.3999H11.2004V35.3999H25.8004V35.1999ZM43.6004 43.5999H4.40039V22.3999H14.8004L18.0004 25.5999H24.0004H30.0004L33.0004 22.5999H43.4004V43.5999H43.6004ZM15.8004 35.1999H12.8004V38.1999H15.8004V35.1999ZM20.2004 35.1999H17.2004V38.1999H20.2004V35.1999ZM28.4004 33.7999C28.4004 35.3999 29.6004 36.5999 31.2004 36.5999C32.8004 36.5999 34.0004 35.3999 34.0004 33.7999C34.0004 32.1999 32.8004 30.9999 31.2004 30.9999C29.6004 30.9999 28.4004 32.1999 28.4004 33.7999Z" fill="#D44D21"/>
<path d="M22.4006 24H18.8006L16.2006 21H7.60059V15H22.4006V24Z" fill="#766958"/>
<path d="M31.6 21.6L29 24H24V13.6H12V10.4H31.6V21.6Z" fill="#FF9E7E"/>
<path d="M40.4006 21H33.0006V9H19.6006V6H40.4006V21Z" fill="#FF9E7E"/>
</g>
<defs>
<clipPath id="clip0_336_77">
<rect width="48" height="48" fill="white"/>
</clipPath>
</defs>
</svg>
