<svg width="34" height="34" viewBox="0 0 34 34" fill="none" xmlns="http://www.w3.org/2000/svg">
<path fill-rule="evenodd" clip-rule="evenodd" d="M28.6391 30.6H5.36088C4.32558 30.6 3.53169 29.6835 3.67789 28.6601L5.62098 15.0601C5.73998 14.222 6.4574 13.6 7.304 13.6H8.49911V17C8.49911 17.9384 9.26072 18.7 10.1991 18.7C11.1392 18.7 11.8991 17.9384 11.8991 17V13.6H22.0992V17C22.0992 17.9384 22.8608 18.7 23.7992 18.7C24.7393 18.7 25.4992 17.9384 25.4992 17V13.6H26.696C27.5426 13.6 28.26 14.222 28.379 15.0601L30.3221 28.6601C30.4683 29.6835 29.6744 30.6 28.6391 30.6ZM11.8991 8.5C11.8991 5.6882 14.1873 3.4 16.9992 3.4C19.8127 3.4 22.0992 5.1 22.0992 8.5V10.2H11.8991V8.5ZM33.9652 30.119L31.5359 13.119C31.2979 11.4445 29.8631 10.2 28.1699 10.2H25.4992V8.5C25.4992 3.4 21.6861 0 16.9992 0C12.3139 0 8.49911 3.8131 8.49911 8.5V10.2H6.3486C4.65709 10.2 2.70207 11.4445 2.46236 13.119L0.0347619 30.119C-0.25764 32.1675 1.33186 34 3.40077 34H30.5992C32.6681 34 34.2576 32.1675 33.9652 30.119Z" fill="#FF5E29"/>
</svg>
