<svg width="46" height="46" viewBox="0 0 46 46" fill="none" xmlns="http://www.w3.org/2000/svg">
<path d="M4.3125 11.5C4.3125 9.05625 6.18125 7.1875 8.625 7.1875H14.375" stroke="#FF5E29" stroke-width="4" stroke-miterlimit="10" stroke-linecap="round" stroke-linejoin="round"/>
<path d="M27.3125 27.3125C27.3125 24.15 29.9 21.5625 33.0625 21.5625H38.8125C40.3938 21.5625 41.6875 20.2688 41.6875 18.6875C41.6875 17.1062 40.3938 15.8125 38.8125 15.8125H8.625C6.18125 15.8125 4.3125 13.8 4.3125 11.5V34.5C4.3125 36.8 6.18125 38.8125 8.625 38.8125H38.8125C40.3938 38.8125 41.6875 37.5188 41.6875 35.9375C41.6875 34.3562 40.3938 33.0625 38.8125 33.0625H33.0625C29.9 33.0625 27.3125 30.475 27.3125 27.3125Z" stroke="#FF5E29" stroke-width="4" stroke-miterlimit="10" stroke-linecap="round" stroke-linejoin="round"/>
<path d="M15.8125 11.5L34.5 4.3125L37.375 11.5H10.0625" stroke="#FF5E29" stroke-width="4" stroke-miterlimit="10" stroke-linecap="round" stroke-linejoin="round"/>
<path d="M33.0625 27.3125H35.9375" stroke="#FF5E29" stroke-width="4" stroke-miterlimit="10" stroke-linecap="round" stroke-linejoin="round"/>
<path d="M41.6875 18.6875V35.9375" stroke="#FF5E29" stroke-width="4" stroke-miterlimit="10" stroke-linecap="round" stroke-linejoin="round"/>
</svg>
