<svg width="38" height="35" viewBox="0 0 38 35" fill="none" xmlns="http://www.w3.org/2000/svg">
<rect x="12.5156" y="10.2983" width="13.7671" height="23.2017" rx="1.5" stroke="#FF5E29" stroke-width="3"/>
<path d="M26.1063 18.8069H33.3994C35.0563 18.8069 36.3994 17.4637 36.3994 15.8069V5C36.3994 3.34315 35.0563 2 33.3994 2H5.39941C3.74256 2 2.39941 3.34315 2.39941 5V15.8069C2.39941 17.4637 3.74256 18.8069 5.39941 18.8069H12.6926" stroke="#FF5E29" stroke-width="3"/>
<path d="M8.91992 9.80872H29.8788" stroke="#FF5E29" stroke-width="3" stroke-linecap="round"/>
<path d="M21.8443 20.5733L21.7037 20.4546C21.3521 20.1576 20.9091 19.995 20.4514 19.995H18.1765C17.2312 19.995 16.4648 20.7718 16.4648 21.73C16.4648 22.6882 17.2312 23.465 18.1765 23.465H20.6217C21.567 23.465 22.3333 24.2417 22.3333 25.1999C22.3333 26.1581 21.567 26.9349 20.6217 26.9349H17.8459C17.3366 26.9349 16.8474 26.7335 16.4823 26.3738L16.4648 26.3566" stroke="#FF5E29" stroke-width="2" stroke-linecap="round" stroke-linejoin="round"/>
<path d="M19.3994 19.4992V18.5078" stroke="#FF5E29" stroke-width="2" stroke-linecap="round" stroke-linejoin="round"/>
<path d="M19.3994 28.422V27.4305" stroke="#FF5E29" stroke-width="3" stroke-linecap="round" stroke-linejoin="round"/>
</svg>
